<svg xmlns="http://www.w3.org/2000/svg" width="893.977" height="633.866" viewBox="0 0 893.977 633.866"><g transform="translate(0 15.416) rotate(-1)"><path d="M-232.052,527.918l-.159.357" transform="translate(499.334 -279.572)" fill="none" stroke="#faf3e1" stroke-miterlimit="10" stroke-width="0.296"></path><g transform="translate(0 0)"><path d="M-466.369,603.067c6.662-.708,12.737-2.537,19.11-4.486a.3.3,0,0,1,.232.559c-5.875,2.924-12.755,4.166-19.251,4.591C-466.706,603.76-466.8,603.113-466.369,603.067Z" transform="translate(1179.258 -210.056)" fill="#dfc5b0"></path><path d="M-466.929,577.463c1.3-.141,2.593-.246,3.895-.3a7.977,7.977,0,0,1,3.256.163.3.3,0,0,1,0,.552,10.659,10.659,0,0,1-3.345.185c-1.238.024-2.47.091-3.7.19C-467.328,578.291-467.441,577.519-466.929,577.463Z" transform="translate(1193.22 -231.203)" fill="#dfc5b0"></path><path d="M-183.323,507.818c8.9.988,16.316,8.208,22.257,14.315.28.288-.192.772-.5.508-6.9-6.036-13.2-11.019-21.965-14.027A.416.416,0,0,1-183.323,507.818Z" transform="translate(332.179 -299.353)" fill="#dfc5b0"></path><path d="M-179.524,406.546c3.766,3.653,4.654,9.491,3,14.322-.109.319-.663.189-.583-.151,1.2-5.016-.143-9.426-3.03-13.547C-180.4,406.79-179.9,406.183-179.524,406.546Z" transform="translate(339.836 -399.112)" fill="#dfc5b0"></path><path d="M-214.675,429.989c3.653,7.956,4.744,17.979,10.408,24.917,6.8,8.323,18.656,10.5,27.717,15.332a.2.2,0,0,1-.151.379c-8.773-2.494-19.39-6-26.217-12.39-7.771-7.271-8.636-18.556-12.388-27.977A.342.342,0,0,1-214.675,429.989Z" transform="translate(410.224 -376.133)" fill="#dfc5b0"></path><path d="M-229.217,532.325c-6.387-1.274-12.783-4.557-16.126-10.416-1.555-2.726-1.845-5.631-2.5-8.62a35.805,35.805,0,0,0-10.1-18.443c-.3-.3.21-.829.526-.54a34.027,34.027,0,0,1,9.831,14.711c1.311,4.077,1.44,8.317,3.6,12.091,3.289,5.75,9.021,8.19,15,10.339C-228.513,531.619-228.7,532.428-229.217,532.325Z" transform="translate(547.239 -312.729)" fill="#dfc5b0"></path><path d="M-278.2,506.659c5.672,3.343,11.162,6.984,16.862,10.287,3.657,2.119,6.728,3.952,10.884,4.831a34.49,34.49,0,0,1,6.4,1.492c.409.165.258.889-.2.774-5.186-1.323-9.553-1.659-14.3-4.278a179.436,179.436,0,0,1-20.032-12.594C-278.92,506.921-278.547,506.455-278.2,506.659Z" transform="translate(603.356 -300.541)" fill="#dfc5b0"></path><path d="M-255.345,576.057c.222.274-.192.583-.425.333-9.936-10.716-17.848-19.6-32.083-24.354-7.684-2.565-14.531-5.178-20.35-10.878-.307-.3.194-.8.528-.54,9.98,7.791,21.5,8.539,31.986,14.678C-267.567,560.054-261.143,568.918-255.345,576.057Z" transform="translate(673.522 -267.145)" fill="#dfc5b0"></path><path d="M-254.247,556.567c-12.737-8.007-22.473-16.69-32.472-27.943-.343-.385.268-.825.615-.482,5.514,5.452,10.505,11.719,16.43,16.739,4.906,4.156,10.581,7.448,15.82,11.154C-253.5,556.285-253.892,556.791-254.247,556.567Z" transform="translate(629.344 -279.473)" fill="#dfc5b0"></path><path d="M-244.674,529.2a118.479,118.479,0,0,0-10.888-7.908c-3.234-2.044-6.623-3.712-8.964-6.823-.411-.546.359-1.1.815-.637,5.678,5.773,13.517,9.152,19.523,14.713C-243.811,528.9-244.257,529.54-244.674,529.2Z" transform="translate(575.672 -293.6)" fill="#dfc5b0"></path><path d="M-282.462,493.891c16.846,14.384,43.46,11.668,57.447-4.821a.458.458,0,0,1,.736.546c-11.97,18.467-43.293,19.82-58.822,5.133C-283.589,494.288-282.994,493.437-282.462,493.891Z" transform="translate(592.802 -317.971)" fill="#dfc5b0"></path><path d="M-283.506,505.446c-.208-.008-.161-.317.04-.317,1.325,0,2.621-.077,3.9-.18-.149-.06-.143-.331.044-.337,13.342-.5,26.816-9.214,30.451-22.259.073-.266.508-.149.466.121a21.932,21.932,0,0,1-5.317,10.914,45.162,45.162,0,0,0,7.059-9.335c.179-.314.714-.016.554.307C-253.454,498.8-267.707,506.022-283.506,505.446Z" transform="translate(615.599 -324.556)" fill="#dfc5b0"></path><path d="M-243.583,499.2c-7.71-.147-13.9-5.166-18.959-10.565-.357-.381.256-1.018.649-.665,5.482,4.942,10.585,10.005,18.39,10.575C-243.071,498.577-243.167,499.21-243.583,499.2Z" transform="translate(570.895 -318.98)" fill="#dfc5b0"></path><path d="M-203.54,472.11a.364.364,0,0,1,.28.672c-8.2,4-12.975,6.194-22.134,4.162-7.023-1.559-13.374-4.508-17.511-10.581-.274-.4.3-.859.6-.468,4.672,6.061,11.472,8.94,18.838,10.313C-215.535,477.687-210.579,474.992-203.54,472.11Z" transform="translate(491.689 -340.748)" fill="#dfc5b0"></path><path d="M-239.943,450.995c8.365,10.886-2.789,28.286-13.18,33.125-.393.183-.617-.409-.254-.611,10.63-5.936,18.439-20.35,12.821-32.157A.36.36,0,0,1-239.943,450.995Z" transform="translate(546.651 -355.395)" fill="#dfc5b0"></path><path d="M-223.4,482.595a.291.291,0,0,1-.077-.577,35.324,35.324,0,0,0,18.894-9.005c-13.6,9.9-34.849,11.926-45.065-3.851a.469.469,0,0,1,.738-.577c13.162,15.394,32.214,12.38,46.872.944a.469.469,0,0,1,.623.016,34.994,34.994,0,0,0,6.252-12.63c.131-.484.968-.274.857.22C-197.495,471.471-209.038,480.853-223.4,482.595Z" transform="translate(496.337 -349.71)" fill="#dfc5b0"></path><path d="M-246.728,433.218c13.729-3.672,29.3-2.486,39.508,8.315.208.218-.151.591-.373.383-10.926-10.273-25.12-10.386-39-7.726C-247.232,434.313-247.321,433.377-246.728,433.218Z" transform="translate(504.032 -374.605)" fill="#dfc5b0"></path><path d="M-248.552,428.413c8.829,1.792,16.715,7.569,22.126,14.622a.347.347,0,0,1-.548.427c-6.166-7-13.17-10.979-21.772-14.287C-249.158,429.016-249,428.32-248.552,428.413Z" transform="translate(526.912 -377.493)" fill="#dfc5b0"></path><path d="M-215.215,429.1c.472.157.181.837-.282.706-6.228-1.746-12.15.206-18.164,1.807-.546.145-.794-.774-.26-.96C-227.91,428.553-221.427,427.026-215.215,429.1Z" transform="translate(486.234 -377.78)" fill="#dfc5b0"></path><path d="M-248.638,445.941c-1.25-2.03-2.732-3.835-4.156-5.736a.364.364,0,0,1,.573-.448,28.581,28.581,0,0,1,3.978,5.954C-248.12,445.937-248.5,446.163-248.638,445.941Z" transform="translate(556.496 -366.448)" fill="#dfc5b0"></path><path d="M-249.952,445.833a25.837,25.837,0,0,0-2.1-3.877c-.657-.982-1.49-1.843-2.055-2.879-.222-.407.351-.788.686-.536,2.073,1.551,3.418,4.583,4.315,6.94A.458.458,0,0,1-249.952,445.833Z" transform="translate(559.897 -367.598)" fill="#dfc5b0"></path><path d="M-288.208,442.851a.419.419,0,0,1,.1-.831c16.291.754,30.964,12.271,36.8,27.262a.336.336,0,0,1-.621.258C-259.3,454.31-271.745,445.811-288.208,442.851Z" transform="translate(630.362 -364.097)" fill="#dfc5b0"></path><path d="M-299.738,527.845c20.007-2.357,39.16-21.463,37.418-42.208a.513.513,0,0,1,1.016-.139c3.043,20.356-18.225,42.579-38.345,43.013C-300.069,528.521-300.18,527.9-299.738,527.845Z" transform="translate(662.829 -321.734)" fill="#dfc5b0"></path><path d="M-289.811,510.221c-.161.256-.55.016-.448-.25,2.065-5.518,4.664-10.354,2.976-16.388-1.72-6.141-6.081-11.114-9.964-16.007-.218-.274.167-.7.442-.454,4.8,4.3,9.5,10.749,10.962,17.146C-284.568,499.85-286.889,505.534-289.811,510.221Z" transform="translate(681.926 -329.628)" fill="#dfc5b0"></path><path d="M-251.874,539.73c5.325,15.779,15.572,33.371,32.883,38.121.484.133.274.972-.22.857-16.824-3.912-30.937-22.114-33.432-38.769C-252.709,539.5-252.023,539.29-251.874,539.73Z" transform="translate(526.546 -268.189)" fill="#dfc5b0"></path><path d="M-235.254,533.71c-4.645,11.811-.581,25.808,7.134,35.645.274.349-.246.74-.538.421-7.813-8.543-14.311-25.78-7.456-36.543C-235.806,532.748-235.052,533.2-235.254,533.71Z" transform="translate(508.799 -274.547)" fill="#dfc5b0"></path><path d="M-200.574,443.739c-12.585-13.965-31.657-20.818-49.725-14.787-.565.188-.927-.635-.361-.865,17.6-7.152,39.269.369,50.693,15.178C-199.66,443.662-200.245,444.1-200.574,443.739Z" transform="translate(504.329 -380.495)" fill="#dfc5b0"></path><path d="M-289.992,451.426a.312.312,0,0,1,.49-.29c.958.629,1.472,1.9,2.063,2.865.625,1.016,1.238,2.042,1.8,3.093.2.375-.393.71-.641.375-.792-1.067-1.522-2.178-2.242-3.3A7.311,7.311,0,0,1-289.992,451.426Z" transform="translate(667.525 -355.178)" fill="#dfc5b0"></path><path d="M-285.07,448.495c17.644-11.112,41.162.016,54.326,13.309.246.248-.161.657-.427.439-15.148-12.464-34.254-21.667-53.41-12.908C-285.07,449.558-285.545,448.793-285.07,448.495Z" transform="translate(603.212 -362.198)" fill="#dfc5b0"></path><path d="M-249.288,441.476a36.591,36.591,0,0,0-9.569,1.421c-3.176,1.056-5.688,2.952-8.5,4.68-.323.2-.817-.167-.522-.512,4.155-4.859,12.386-7.345,18.582-6.212C-248.96,440.915-248.913,441.455-249.288,441.476Z" transform="translate(587.241 -365.511)" fill="#dfc5b0"></path><path d="M164.89,546.477c-17.164,12.888-34.728,25.373-49.031,41.551-13.412,15.17-20.167,33.365-30.619,50.324a71.633,71.633,0,0,1-27.6,25.925.455.455,0,0,1-.323.369c-.272.075-.556.119-.831.189a64.411,64.411,0,0,1-45.467,4.906,67.264,67.264,0,0,1-19.336-8.47c-8.857-5.7-19.312-20.364-30.193-6.615-4.418,5.587-6.1,11.924-12.015,16.431a35.824,35.824,0,0,1-16.134,6.583c-14.013,2.186-27.824-3.458-39.6-10.549a132.128,132.128,0,0,1-24.368-19.128c-7.017-6.9-13.416-14.668-23.147-17.4-24.371-.367-48.471-3.928-70.121-13.823a.357.357,0,0,1-.327.018c-.339-.151-.655-.365-.988-.536,19.62,24.032,38.972,46.578,65.532,63.591,15.912,10.192,33.2,17.935,49.07,28.163A207.643,207.643,0,0,1-69.153,742.82c.379.419-.3.907-.679.53q-5.128-5.065-10.414-9.88a.21.21,0,0,1-.212-.036c-8.982-7.642-20.023-9.886-30.179-15.293a61.364,61.364,0,0,1-18.913-15.62c-.331-.409.286-.865.635-.494,8.761,9.261,17.949,15.178,29.792,19.874a76.711,76.711,0,0,1,12.394,5.821,220.911,220.911,0,0,0-31.792-22.985c-16.059-9.452-32.817-17.231-48.273-27.75-24.929-16.965-43.908-39.531-62.2-63.2-5.329-4.27-9.466-10.882-12.386-16.535-.175-.337.377-.667.585-.339,3.3,5.154,6.785,10.46,11.241,14.7a.588.588,0,0,1,.708.173c.429.526.855,1.048,1.282,1.573a30.8,30.8,0,0,0,3.754,2.694c.038.022.036.06.062.087a139.311,139.311,0,0,0,15.63,5.712,116.656,116.656,0,0,1-26.314-20.3c-.256-.27.177-.714.458-.47a197.862,197.862,0,0,0,29.32,21.532.41.41,0,0,1,.2.3c15.7,4.3,32.127,6.135,48.7,6.494a.429.429,0,0,1,.5-.288c.46.085.9.208,1.349.315,12.295.184,24.655-.415,36.839-1.4a.317.317,0,0,1,.373-.371c.161.024.311.059.47.085a.567.567,0,0,1,.367-.292c.528-.143,1.044-.308,1.567-.46a321.535,321.535,0,0,1-60.974-5.535c2.629,1.109,5.309,2.1,8.063,2.972,5.863,1.857,12.438,4.406,18.642,4.178.411-.014.51.615.087.645-5.5.4-10.87-1.379-16.1-2.895a91.072,91.072,0,0,1-15.6-5.92c-23.941-5.232-46.733-14.07-65.712-28.226a.351.351,0,0,1-.145-.353,331.886,331.886,0,0,1-17.852-29.609c-.139-.254.1-.466.341-.466a31.324,31.324,0,0,1-3.8-1.8c-.561-.317-.032-1.2.544-.972,6.361,2.563,12.454,4.559,19.362,4.867-.1-.442-.21-.879-.3-1.327-12.311-1.7-23.382-8.791-32.113-17.441-.343-.339-.109-.77.246-.964-.3-.1-.613-.153-.915-.266-8.98-3.317-17.995-11.971-23.508-22.122,1.607,3.837,3.125,7.8,5.023,11.474q3.158,3.821,6.269,7.7c8.763,2.789,14.168,2.557,18.719,12.3,3.534,7.567,3.216,13.3,9.8,19.275,4.2,3.811,9.182,5.912,12.358,10.611.429.633-.484,1.367-.946.738-5.684-7.742-14.188-7.371-17.995-16.785-1.738-4.291-2.075-9.329-4.276-13.4-3.428-6.347-10.41-8.89-16.747-11.583a314.963,314.963,0,0,1,26.461,38,.362.362,0,0,1,.454-.115c12.079,5.244,18.412,17.2,22,29.264.127.427-.5.706-.651.272-4.278-11.89-9.894-22.233-21.263-28.468q2.559,4.476,4.883,9.055a489.411,489.411,0,0,0,32,40.545.376.376,0,0,1,.484-.155c16.386,7.759,26.9,21.009,36.579,35.9.21.323-.244.692-.476.373-4.641-6.359-9.22-12.884-14.553-18.685-6.293-6.843-13.335-11.067-20.856-16.1a369.491,369.491,0,0,0,57.59,52.741c22.626,16.588,48.213,29.3,72.178,44.156A47.194,47.194,0,0,1-70.6,743.54c.349.381-.274.845-.625.488a49.549,49.549,0,0,0-22.52-13.16A272.247,272.247,0,0,1-69.965,747.6a.392.392,0,0,1,.605-.175A122.671,122.671,0,0,1-37.135,783.3c9.6,15.838,24.2,40.023,46.628,30.835,6.019-2.466,10.831-6.5,15.743-10.212-.27-.734.534-1.635,1.25-1.016l.046.044c5.45-4.01,11.166-7.41,18.914-7.632,10.321-.3,18.392,4.621,25.562,11.626,13.029,12.729,23.209,24.04,41.827,28.083a64.764,64.764,0,0,0,43.587-5.51c26.7-14.031,41.569-44.249,71.8-51.935-19.213-8.9-27.721-29.764-41.388-44.791-27.389-11.668-43.747,6.7-61.609,24.923-7.7,7.853-16.16,14.567-26.586,16.521,9.319-1.807,18.443-4.625,26.342-10.108,7.615-5.287,12.67-12.908,19.029-19.471,7.666-7.914,16.759-12.176,27.808-11.872.516.014.522.875,0,.907-12.221.762-21.277,5.6-29.413,14.6-3.992,4.418-7.492,9.16-12.009,13.079-8.458,7.333-18.856,11.384-29.714,13.356,6.279.157,12.553.2,18.814.075,2.45-.05,4.9-.145,7.339-.264a.311.311,0,0,1,.2-.5c20.2-2.895,31.454-23.356,52.717-25.034a.453.453,0,0,1,.119.9c-13.017,2.791-21.669,8.267-32.282,15.934-5.938,4.291-11.569,7.446-18.679,8.589,18.146-1,36.117-3.607,54.2-5.532a.607.607,0,0,1,.163,1.2c-33.706,5.65-67.047,6.946-100.738,5.386,7.42,1.879,14.422,5.775,21.229,9.813,10.174,6.035,19.656,11.471,31.7,12.749,9.853,1.046,19.868-.478,29.631-1.714a.535.535,0,0,1,.143,1.06c-14.894,2.246-30.288,4.039-44.672-1.6-16.757-6.565-29.845-20.229-48.138-20.39,8.138,2.325,15.459,7.2,22.632,12.61,19.376,14.636,36.428,22.4,61.149,21.157a.5.5,0,0,1,.133.984,71.83,71.83,0,0,1-43.142-8.112c-15.138-8.141-27.429-22.923-44.223-26.508-.881.073-1.754.133-2.661.272-.415.063-.48-.542-.085-.633.133-.032.266-.048.4-.077a35.717,35.717,0,0,0-5.143-.365c13.652,5.762,24.356,17.9,36.557,26.828,22.739,16.636,51.943,25.352,78.182,11.392.766-.407,1.268.831.516,1.242-19.189,10.476-41.458,8.88-60.891-.244C105.614,809.141,96.4,802.5,87.817,795.19c-9.2-7.845-18.1-16.259-29.066-20.35-.27.02-.524.006-.8.032a.314.314,0,0,1-.307-.45c-.887-.3-1.79-.567-2.7-.812-.805-.071-1.605-.119-2.411-.194A475.332,475.332,0,0,1-12.409,762.5q-3.684-.863-7.4-1.712a66.4,66.4,0,0,1,10.63,5.224c5.327,3.246,9.809,7.595,15,11.025,7.6,5.027,15,6.851,23.82,8.72a.391.391,0,0,1-.1.776c-10.071-.339-19.481-4.518-27.468-10.517-11.646-8.746-22.108-14.525-35.639-17.862,7.619,3.563,13.581,9.166,19.576,15.868,12.529,14,24.465,23.167,43.831,24.473.807.053.623,1.23-.151,1.224a50.7,50.7,0,0,1-31.726-11.3C-16.172,776.957-23.471,761.678-42.1,756c-.333-.1-.268-.567-.008-.69-3.708-1.022-7.378-2.155-11.017-3.369,6.752,4.494,11.612,11.307,16.5,17.91,9.8,13.247,19,25.256,35.119,30.968.522.184.313,1.075-.244.954-27.812-6.037-33.355-39.218-56.439-51.61-4.135-1.53-8.212-3.2-12.178-5.137-.53-.26-.2-1.109.343-.861.591.27,1.2.494,1.8.756,19.749,4.208,43.472-4.184,60.679-13.739,16.414-9.113,31.411-22.778,51.144-23.276.7-.018.877,1.016.149,1.1-24.358,2.871-41.077,20.63-63.238,29.06-13.749,5.23-30.252,11.327-45.2,8.337a217.366,217.366,0,0,0,29.953,9.335c9.926.589,20.044.68,29.566-2.359,12.13-3.875,21.5-12.638,31.337-20.288,14.074-10.938,29.1-16.832,46.876-14.323a48.532,48.532,0,0,0-2.871-3.972c-11.813-14.428-39.609-13.926-55.032-6.767C.944,714.617-11.534,724.674-25.69,731.5c-13.16,6.341-26.808,10.567-41.438,11.39-1.286.071-1.571-1.919-.268-2,17.17-1.061,32.919-6.817,47.993-14.862,14.055-7.5,27.635-19.612,43.4-23.32,10.6-2.492,22.814-1.669,33.173,1.514a29.337,29.337,0,0,1,12.116,6.593c8.644,8.224,9.88,22.931,26.35,19.969,12.36-2.224,22.854-11.819,35.272-14.937,10.773-2.7,22.336-3.149,33.087-.081,31.911,9.109,37.545,48.007,66.337,61.345.331-.069.653-.155.986-.22,1.357-.266,1.643,1.865.288,2.131-35.68,6.964-50.989,46.251-84.9,56.619-22.663,6.93-48.453,1.065-65.655-15.271-5.958-5.658-10.632-12.819-17.4-17.592-10.424-7.355-22.586-7.42-33.393-.964-1,.6-1.968,1.236-2.932,1.893a28.828,28.828,0,0,1,7.117,9.731l.016.006c18.671,3.827,36.03,11.511,51.88,21.713a211.734,211.734,0,0,1,33.127,20.82c6.763,5.252,13.287,11.269,21.173,14.842,9.359,4.244,19.388,4.66,29.492,4.577,15.6-.131,31.171-.6,46.717,1.182,28.288,3.25,55.4,14.253,72.382,38.008a130.51,130.51,0,0,1,7.182,11.343l.206.032a.651.651,0,0,1,.4,1.054c12.785,22.834,20.415,48.557,39.123,67.563,1.329.488,2.659.96,3.986,1.528.927.4.347,1.851-.579,1.454-.218-.093-.442-.163-.661-.256.04.038.075.079.115.115.446.413-.1,1.177-.571.77-.687-.589-1.319-1.216-1.978-1.823-14.92-5.73-30.611-7.232-46.57-7.263-16.138-.034-33.105,2.242-49.049-1.129-27.746-5.867-43.914-31.427-44.87-58.578-.353-10.015.022-22.82-9.275-29.383-6.071-4.283-19.7-1.518-27.129-3.682-13.142-3.833-22.818-14.1-31.907-23.756-2.563-2.722-5.182-5.369-7.835-7.972a124.737,124.737,0,0,1-12.464-9.884c-.4-.367.087-1.054.512-.691,1.776,1.514,3.589,2.958,5.422,4.365a217.078,217.078,0,0,0-24.1-19.209,401.854,401.854,0,0,0-54.209-24.358,33.4,33.4,0,0,1,1.7,6.317c1.395,8.3-.52,12.023,5.061,19.384,4.865,6.416,7.073,7.077,14.507,8.633,2.307.484,4.637.859,6.962,1.244,19.981,3.305,38.393,6.944,50.441,24.967,10.079,15.074,11.686,33.992,7.129,51.255-3.99,15.116-9.966,26.556.782,40.694,6.89,9.063,15.233,16.995,23.875,24.467a25.145,25.145,0,0,1,9.958,7.325c.381.472-.335,1.024-.736.589a.421.421,0,0,1-.655.447c-3.44-2.472-6.738-5.121-9.97-7.843-18.2-7.17-44.648,2.6-60.383,9.027-17.507,7.156-34.716,15.926-53.568,18.969-13.958,2.252-29.141.869-41.626-6.17-14.709-8.291-20.574-22.479-23.292-38.49-1.891-11.128-2.659-22.769-7.557-33.119-6.992-14.777-19.671-19.89-35.141-18.866-16.483,1.091-31.833,6.113-48.511,3.478-31.96-5.047-49.715-30.038-46.194-61.808,2.547-22.987,13.517-44.176,18.491-66.641,5.438-24.566,5.71-49.354,3.008-74.283a.822.822,0,0,1,1.391-.669c.018.006.036,0,.054.008.444.278.9.494,1.349.756a347.991,347.991,0,0,0-20.4-34.93c-.167-.246.177-.522.363-.286,8.807,11.091,15.426,23.483,21.632,36.111,21.584,11.658,47.136,6.382,68.47,18.437-31.847-21.513-66.617-38.337-97.4-61.572-31.381-23.685-61.4-52.665-82.461-86.282,7.152,13.694,6.879,30.823.026,45.719,15.418-4.274,32.934-.093,43.321,12.688,6.131,7.545,8.749,15.356,8.833,23.094,7.406,26.7,39.194,46.279,33.434,76.178-2.321,12.055-11.132,21.019-21.282,27.173-10.716,6.5-25.129,12.12-23.318,27.75.907,7.817,5.8,15.2,8,22.671,7.686,26.109,1.738,54.566-24.84,66.313-14.64,6.47-30.845,6.97-46.362,9.858-19.152,3.567-35.153,12.349-47.237,26.7a41.279,41.279,0,0,1-6.389,9.565.489.489,0,0,1-.855-.286.717.717,0,0,1-.464-1.067,83.085,83.085,0,0,1,7.069-9.823c5.444-12.964,2.863-27.125-5.785-39.728-.718-1.047-1.464-2.075-2.22-3.1-.044.077-.093.147-.137.226-.349.621-1.423.026-1.1-.613.127-.25.27-.484.4-.73-6.6-8.736-14.112-16.838-17.9-27.318-.173-.474-.311-.934-.462-1.4a.756.756,0,0,1-1.228-.794c.167-.5.389-.938.579-1.415-6.023-22.945,14.644-32.177,33.359-40.551,10.956-4.9,20.286-11.749,18.937-24.991-.74-7.258-4.625-13.8-7.5-20.406-1.28-2.938-2.536-5.924-3.7-8.952-.149.179-.3.343-.452.526-.508.627-1.51-.111-1.01-.748.313-.4.643-.756.966-1.131-2.954-7.972-5.115-16.233-4.821-24.794.768-22.413,18.021-46.59,38.7-55-1.684-7.65-1.526-15.408,1.292-22.153a227.852,227.852,0,0,1-31.083,27.07c-11.563,8.4-24.679,17.782-38.573,21.913-11.4,3.387-21.953,1.264-32.484-3.778-.3-.141-.589-.3-.883-.448-.887.157-1.772.314-2.674.435a.6.6,0,0,1-.161-1.19c.321-.057.635-.135.954-.2-14.251-7.563-27.752-19.672-44.376-11.952-21.028,9.765-49.142,27.544-72.14,12.35-12.025-7.944-17.112-20.158-20.475-33.49a.567.567,0,0,1-.149-.611c-4.718-19.041-6.119-40.24-19.223-54.515-.429-.186-.867-.341-1.294-.536a.474.474,0,0,1,.351-.881c.081.036.165.063.246.1a1.046,1.046,0,0,1,1.732-.417c.532.55,1.03,1.113,1.526,1.677,33.76,12.2,75.319,1.331,106.9-12.456,13.188-5.758,26.387-16.5,41.069-17.906,16.832-1.607,25.506,17.836,42.065,13.335,10.595-2.883,13.325-12.727,20.775-19.293,4.24-3.736,9.172-5.1,14.713-5.652,12.466-1.248,26.177-1.323,37.43,4.857A43.846,43.846,0,0,1-260.4,591.53c-.508-.851-1.038-1.691-1.532-2.548a.43.43,0,0,1,.2-.6c-16.015-26.546-36.4-49.2-54.641-74.214a.422.422,0,0,1,0-.508c-13.9-17.64-28.52-34.506-42.817-51.816-.486-.591-.931-1.22-1.407-1.819-.012.123-.135.226-.248.137a3.8,3.8,0,0,1-1.305-2.147c-11.106-14.646-19.142-31.988-26.913-48.485-.274-.581.605-.915.907-.377,3.8,6.785,7.265,13.684,10.813,20.507a11.928,11.928,0,0,1,1.1-2.637,11.683,11.683,0,0,0,1.214-6.4c-.308-3.732-2.01-7.363-3.649-10.678-.165-.331.343-.522.518-.216,2.022,3.545,4.129,7.057,4.464,11.221.306,3.778-1.317,6.256-2.754,9.579a.5.5,0,0,1-.294.276q.908,1.738,1.827,3.468c.157-2.069,1.036-4.091,3.472-2.873,1.756.877,2.47,6.482,3.236,8.146,3.236,7.055,8.656,9.053,15.947,8.906A170.666,170.666,0,0,1-368,419.1a.481.481,0,0,1,.887-.369c2.4,4.928,5,9.69,7.726,14.34-5.131-9.111-9.374-18.481-11.333-29.014a43.353,43.353,0,0,1-4.609,2.464.225.225,0,0,1,.151.089c3.051,4.291,2.99,8.882,4.024,13.928a35.429,35.429,0,0,0,15.394,23.173.388.388,0,0,1-.373.669c-5.895-2.617-10.021-7.543-12.793-13.311-3.688-7.672-2.6-16.941-6.7-24.195a.2.2,0,0,1,.018-.222c-4.313,1.94-9.267,3.268-13.2,2.129-.381-.109-.214-.774.175-.677,6.008,1.488,13.313-2.649,18.461-5.319.4-.206.782.44.4.688-.079.054-.179.109-.26.163,2.885,12.6,8.37,25.006,15.186,36.9,6.367,10.111,13.281,19.79,20.209,29.581,13.662,4.843,25.8-4.7,38.535-7.494a.228.228,0,0,1,.169.4,37.8,37.8,0,0,1-8.251,4.093.476.476,0,0,1,.115.895c-7.51,3.611-18.834,9.208-27.2,5.512a.132.132,0,0,1,.1-.246c7.912,2.956,18.7-2.2,25.99-5.783-3.307,1.172-6.714,2.1-9.757,2.9-6.216,1.651-12.924,2.8-19.09.573q1.074,1.521,2.151,3.045l.611.778c.022,0,.04-.014.061-.006,12.944,3.613,26.06-2.363,38.456-5.369.468-.113.667.647.22.811-11.485,4.238-26.006,8.666-38.19,5.26q1.378,1.747,2.752,3.458a.561.561,0,0,1,.421.056c7.174,4.085,15.273,5.488,23.116,7.718a.291.291,0,0,1,.151.127,53.866,53.866,0,0,1,14.751-15.614c-.02-.016-.042-.01-.06-.03-.778-.895-1.516-1.813-2.23-2.744a.32.32,0,0,1-.385.21c-6.323-1.26-11.932.649-16.7,4.827-.415.363-1.089-.274-.7-.686a18.229,18.229,0,0,1,17.3-5.008c-8.551-11.471-11.9-25.262-2.325-37.351,12.563-15.86,25.873-23.018,46.321-19.253,9.976,1.839,21.015,7.841,26.469,17.011,13.327-2.411,20.822.581,30.082,10.753,8.261,9.073,8.859,22.429,3.194,33.2a36.4,36.4,0,0,1,18.753,10.089c7.3,7.3,13.692,15.608,12.192,26.367a46.157,46.157,0,0,1-14.18,27.1,30.856,30.856,0,0,1,5.016,8.722c13.354,2.129,22.657,8.775,27.633,21.6,5.214,13.428.351,26.443-8.676,37.283-8.454,10.148-22.187,15.326-35.194,12.471a38.36,38.36,0,0,1-15.307-7.373,36.774,36.774,0,0,1-4.333-3.545.476.476,0,0,1,.061-.732,18.446,18.446,0,0,1-3.839-8.053.388.388,0,0,1,.185-.391c-20.035,1.226-36.25-11.759-40.97-30.966-.044.012-.069.046-.117.046a46.267,46.267,0,0,1-15.961-2.916c.012.012.03.008.04.022,7.125,8.94,11.7,19.995,17.793,29.635.032.012.061,0,.1.018,30.024,18.969,63.359,28.044,97.73,31.73,15.886-6.23,31.4-13.844,44.285-25.231,13.3-11.757,20.292-27.445,31.026-41.2,16.271-20.854,39.452-25.675,62.014-11.616,7.634,4.758,14.886,10.39,23.836,12.37,13.866,3.065,21.745-4.672,30.107-14.128,7.158-8.095,14.388-14.824,25.748-15.126,32.784-.871,58.689,34.843,92.649,18.146.032-.016.052,0,.081,0,.6-.428,1.194-.859,1.8-1.286C164.739,544.59,165.735,545.844,164.89,546.477ZM98.366,774.292q-1.05.188-2.131.308l.395.012C97.21,774.509,97.789,774.4,98.366,774.292Zm-38.527-.22c.131-.01.266-.028.4-.036-.216-.018-.435-.034-.653-.054C59.668,774.015,59.754,774.04,59.839,774.072Zm59.038-52.019c-8.956,3.984-18.239,12.114-28.641,11.392C81.863,732.864,78.1,726.611,74.1,720.4a54.891,54.891,0,0,0-38.882,7.958c-9.626,6.152-17.664,14.475-27.385,20.493-11.509,7.123-24.074,8.761-36.972,8.236q3.428.8,6.855,1.567a129.716,129.716,0,0,0,20.376.831c12.874-.619,22.4-5.744,32.754-13.043,11.6-8.182,23.018-17.144,37.966-16.354.583.032.6,1.03,0,1.04-22.076.343-34.46,18.13-53.425,26.058-8.5,3.551-18.088,4.287-27.615,3.708,1.4.312,2.8.621,4.2.937,6.871,1.557,13.763,2.922,20.667,4.194,12.376-.514,24.237-2.68,35.607-7.876,7.944-3.629,15.138-8.436,23.977-9.452a.535.535,0,0,1,.141,1.059c-11.773,2.347-21.489,9.622-32.859,13.21a83.4,83.4,0,0,1-22.947,3.766c11.985,2.105,24.03,3.811,36.194,4.932,12.586,1.161,25.262,2.149,37.946,2.716a.3.3,0,0,1,.278-.193c26.731-.045,37.226-27.262,57.092-39.986a38.961,38.961,0,0,1,37.254-3.008,48.677,48.677,0,0,0-18.832-12.644C151.083,713.056,133.545,715.526,118.877,722.054ZM333.648,993.666c-18.3-18.59-26-44.184-38.732-66.645-8.948-1.238-17.995-2.773-26.01-7.164a170.545,170.545,0,0,1-20.951-14.221c8.591,8.716,15.11,19.558,22.614,29.776,16.154,21.995,36.379,40.041,59.346,54.65.758.484-.075,1.577-.829,1.115A210.706,210.706,0,0,1,275.939,944.8c-15.051-18.477-25.247-41.12-47.682-50.818,12.372,9.462,18.34,24.084,23.794,38.839,9.156,24.78,21.925,43.983,47.269,54.241a.557.557,0,0,1-.413,1.034,73.152,73.152,0,0,1-39.718-34.609c-11.031-20.969-13.872-47.027-34.649-60.958-.728-.252-1.464-.5-2.218-.722a132.08,132.08,0,0,0-23.927-4.428c7.1,5.059,14.071,10.555,18.4,18.259,4.6,8.192,5.47,17.588,7.188,26.639,4.883,25.734,20.739,45.94,45.434,55.427a.683.683,0,0,1,.312,1.049C291.259,988.8,312.574,986.672,333.648,993.666Zm-176.92-99.95c13.011,5.2,27.643-2.9,36.2,11.1,7.874,12.884,3.032,29.968,7.706,44.045,6.7,20.167,23.1,34.916,44.178,38.226a156.687,156.687,0,0,0,23.274,1.651,71.9,71.9,0,0,1-38.94-34.924c-4.307-8.658-5.964-17.771-7.595-27.207-3.1-17.945-10.938-28.808-24.776-39.394-12.118-1.25-24.344-1.887-36.236-4.583a115.669,115.669,0,0,1-34.93-14.237C134.838,878.341,144.1,888.672,156.728,893.715ZM116.47,858.98c1.867,1.774,3.69,3.637,5.5,5.539a123.31,123.31,0,0,0,50.751,18.751c7.136.962,14.416,1.492,21.675,2.177-.143-.105-.278-.21-.425-.315-.375-.272.052-.839.427-.575.49.343.984.69,1.474,1.036a140.216,140.216,0,0,1,25.431,4.361.356.356,0,0,1,.456-.137c.337.177.643.375.972.558,2.111.653,4.2,1.383,6.268,2.226a52.994,52.994,0,0,1,12.567,7.339c7.771,5.034,15.168,10.619,22.935,15.646,9.331,6.037,18.937,8.311,29.6,9.982-.034-.056-.063-.113-.1-.169-19.463-33.44-52.87-45.985-90.12-47.935-15.694-.821-31.6,1.018-47.233-.55-12.8-1.282-22.459-6.916-32.444-14.737a250.817,250.817,0,0,0-20.556-14.463Q110.279,853.091,116.47,858.98ZM46.985,818.024q8.488,3.2,16.872,6.7A158.787,158.787,0,0,0,46.985,818.024Zm5.464,32.353c-6.567-1.631-13.709-3.837-16.233-10.741-.964-2.633-.815-5.266-.911-8.055-.353-10.472-1.486-19.31-9.412-26.879-9.186,6.541-17.356,14.688-29.76,12.463-7.529-1.351-13.753-5.49-18.951-10.781a.526.526,0,0,1-.615.076c-18.171-10.051-38.51,3.127-57.782-2.284-14.727-4.135-26.6-14.5-36.712-25.863,2.057,3.21,4.16,6.39,6.341,9.527C-99.612,799.991-87.62,812.447-70,815.324c14.471,2.363,30.345-6.057,43.971.861a.491.491,0,0,1-.363.911c-17.213-5.581-34.617,3.607-52.193-2.325-10.781-3.641-19.487-11.1-27.465-19.263a320.344,320.344,0,0,0,51.3,53.739c15.325,8.271,34.1-4.631,50.428-5.023,13.182-.317,20.749,8.049,30.714,15.265,9.644,6.984,19.673,11.331,31.9,10.158,7.916-.758,15.487-3.426,23.348-4.5,9.531-1.3,19.677-.224,26.526,6.329A50.583,50.583,0,0,0,83.6,856.261C73.388,853.43,62.724,852.928,52.449,850.377ZM-118.583,780.3c.353.536.706,1.077,1.059,1.617.4.391.808.78,1.208,1.177q-1.914-3.018-3.75-6.075Q-119.3,778.655-118.583,780.3ZM154,998.993a26.556,26.556,0,0,0-4.912-4.115Q151.541,996.952,154,998.993Zm-44.384-7.845c9.737-2.137,22.108-3.609,32.4-.577a192.005,192.005,0,0,1-14.761-14.247c-5.7-6.133-12.606-12.974-14.017-21.634-1.323-8.125,2.071-16.1,4.363-23.7,4.359-14.456,5.468-29.617-.042-43.973a51.518,51.518,0,0,0-6.111-11.39.4.4,0,0,1-.714.2c-15.063-19.245-38.393-4.041-57.637-4.361-13.047-.218-23.423-7.386-33.226-15.239-8.878-7.117-17.128-11.686-29.143-9.954-7.527,1.085-14.584,4.039-21.979,5.674-6.877,1.52-13.834,2.01-20.124.111q1.062.875,2.131,1.746c12.938,3.74,25.447,3.238,39.017-.6,7.75-2.188,13.551-3.494,20.122,1.972,11.835,9.849,21.941,24.24,39.287,23.26,9.563-.54,17.914-6.178,27.576-3.456.514.145.288.984-.232.9-11.676-1.871-22.183,5.444-33.839,3.466-10.8-1.833-19.247-9.382-26.887-16.669-7.744-7.384-14.237-11.561-25.538-8.3-5.643,1.629-10.928,3.145-16.862,3.531a60.35,60.35,0,0,1-20.162-2.119q10.746,8.6,22.1,16.656c13.184,6.375,23.881,17.046,33.857,28.234a.263.263,0,0,1,.228.069c23.844,23.9,43.289-4.893,67-9.428,16.015-3.063,30.611,7.142,42.529,16.535a.59.59,0,0,1-.7.946C109.034,902.1,99.148,894.3,87.55,892.549c-14.3-2.156-25.078,6.381-36.867,12.864-13.378,7.357-27.26,8.065-38.716-1.6q2.527,2.884,5.018,5.756c10.355,5.311,21.971,5.668,33.587,1.568,8.97-3.165,16.858-9.248,26.26-11.2,11.821-2.46,22.983,1.835,31.258,10.341.292.3-.218.827-.52.532-9.226-9.005-21.679-12.5-34.155-8.519-9.113,2.906-16.9,8.8-26.2,11.331-9.484,2.583-19.332,2.4-27.917-1.4,2.532,2.887,5.057,5.726,7.607,8.432,23.846,25.3,53.181,43.848,85.536,56.263a.629.629,0,0,1-.464,1.168A222.874,222.874,0,0,1,34.763,930.4c-6.617-6.269-12.733-13.071-18.826-19.882-.331-.193-.653-.4-.978-.607,8.613,10.176,14.989,20.715,18.626,33.9,5.73,20.788,12.4,36.228,31.244,48.275.3.194.012.724-.31.553a58.707,58.707,0,0,1-28.111-33.248c-2.976-8.654-4.157-17.842-7.726-26.308A81.68,81.68,0,0,0,18.393,916.1a97.02,97.02,0,0,1,11.47,32.829c2.323,14.188,4.545,26.689,16,36.613,9.247,8.013,20.751,12,32.575,14.269.754.145.625,1.313-.147,1.192-17.674-2.774-36.208-11.549-44.335-28.431-4.714-9.793-4.561-20.917-6.863-31.347a91.49,91.49,0,0,0-15.332-33.579c-.742-.6-1.472-1.22-2.18-1.891a.391.391,0,0,1,.307-.684c-1.282-1.677-2.6-3.325-3.982-4.93a.332.332,0,0,1,.139-.538c-7.922-8.513-16.247-16.558-25.925-23.088a.452.452,0,0,1-.534.057,242.888,242.888,0,0,1-20.431-13.4c15.1,16.533,18.671,38.726,22.6,59.978,5,27.078,16.739,54.649,38.767,72.238a.287.287,0,0,1-.341.46c-18.449-12.509-30.458-35.7-36.434-56.633-7.533-26.391-7.781-52.921-25.151-75.7-.232-.3.139-.607.419-.446q-4.029-2.931-7.96-6.021A95.4,95.4,0,0,1-35.4,876.338c8.388,15.777,10.148,32.183,11.833,49.66,3.793,39.359,22.63,84.723,67.762,88.316a.679.679,0,0,1,.649.74c2.514-.758,4.992-1.579,7.41-2.456C71.451,1005.639,89.54,995.554,109.614,991.148ZM12.179,906.679c.262.182.528.349.792.524-.77-.861-1.546-1.716-2.321-2.573C11.181,905.3,11.669,906,12.179,906.679ZM-62.2,922.807c14.549,3.833,21.921,16.743,25.348,30.528,5.168,20.789,3.212,44.428,23.372,57.747,16.818,11.111,37.4,9.9,56.06,4.627-33.159-3.357-54.836-31.383-63.01-61.984-4.8-17.951-3.829-36.591-7.97-54.588s-13.547-33.577-26.409-46.17c-.764-.323-1.534-.637-2.292-.992-.478-.224-.189-.972.306-.768.071.028.139.048.208.075a112.323,112.323,0,0,0-11.636-9.515c-.454-.323.054-.988.514-.69.206.135.4.286.605.42a333.138,333.138,0,0,1-39.017-43.551c-2.446-3.254-4.75-6.581-6.992-9.942l-1.6-1.732c8.924,14.051,16.842,29.091,19.023,45.7,1.472,11.22,1.089,22.626,2.569,33.891,2.115,16.108,9.2,27.667,18.467,40.734a.53.53,0,0,1-.833.653c-14.707-18.009-19.683-35.926-20.862-58.939-.643-12.553-1.4-23.877-6.117-35.772-3.674-9.275-8.621-17.967-13.749-26.524,6.571,16.8,10.031,34.27,11.2,52.959,1.815,29.139,2.464,61.889,27.681,81.475a.812.812,0,0,1,.1,1.206A46.127,46.127,0,0,1-62.2,922.807Zm-86.842-198.224c5.934,37.932-1.26,73.966-13.3,109.88-6.9,20.576-13.535,44.7-2.807,65.294,10.87,20.864,36.412,27.966,58.367,26.167,9.311-.764,18.878-3.375,28.387-4.182-20.479-15.892-25.61-41.254-27.272-65.839-1.827-26.989-4.355-52.162-14.574-76.569l-1.059-1.75a.416.416,0,0,1,.1-.534q-1.262-2.869-2.669-5.73c-.5-.615-1.008-1.23-1.5-1.843a.32.32,0,0,1,.28-.52c-.593-1.141-1.171-2.284-1.8-3.424a.293.293,0,0,1,.046-.365c-7.131-12.993-13.616-26.32-20.447-39.466C-147.882,725.335-148.464,724.976-149.041,724.583Zm75.886,23.086c-13.658-7.349-26.5-11.491-42.075-12.239-11.192-.538-21.038-3.093-30.417-8.66,2.188,4.476,4.331,8.976,6.508,13.456,5.379,11.071,11.2,21.866,17.6,32.321,15.789,16.588,32.526,33.706,57.548,31.633,13.725-1.137,26.4-5.962,39.218.117a77.576,77.576,0,0,1-7-9.323c-9.289-14.342-17.241-27.568-29.058-39.059a.267.267,0,0,1-.252-.052c-3.807-2.932-7.69-5.742-11.612-8.488C-72.732,747.6-72.921,747.8-73.155,747.669ZM-174.442,756.7c9.329-29.718-22.661-49.425-31.24-75.622a48.368,48.368,0,0,1-6.47,19.346.529.529,0,0,1,.06.3c.022.038.008.087.016.131v.01a.364.364,0,0,1,0,.206c-.044.1-.067.2-.107.306-3.341,13.6,7.966,20.614,14.8,29.96a45.118,45.118,0,0,1,7.432,15.622,45.916,45.916,0,0,1-3.19,30.984C-185.19,773.086-177.889,767.678-174.442,756.7Zm-41.287,60.137c-3.383-8.948-3.732-17.286,3.041-24.786,5.143-5.694,11.472-9.265,17.576-12.918,8.938-18.144,5.391-37.018-7.787-52.14-4.68-5.367-9.442-10.761-10.779-17.116.407,8.632,6.492,15.882,10.94,23.86,4.329,7.765,5.777,15.541,5.847,24.4,0,.536-.784.682-.851.115-.871-7.186-1.3-14.148-4.444-20.85-2.569-5.478-6.64-10.13-9.376-15.519-3.022-5.952-4.506-12.15-2.484-18.285a85.676,85.676,0,0,1-7.523,10.011.782.782,0,0,1-.919.214q-.753,1.235-1.532,2.456c-4.256,11.632-8.531,23.3-12.916,34.946-.1.417-.192.833-.294,1.248a.378.378,0,0,1,.127.441c-.175.474-.379.932-.563,1.4-3.1,12.916-6.192,25.9-4.067,39.3,2.587,16.328,14.188,27.167,22.253,40.811,8.486,14.36,12.91,33.821,3.789,47.68a39.013,39.013,0,0,0,6.123-11.573C-203.4,851.962-209.158,834.229-215.729,816.841Zm-9.12,73.908a.543.543,0,0,1-.189-.962c15.777-11.5,15.809-31.694,8.027-48.015-5.414-11.359-14.3-20.29-20.35-31.183A50.511,50.511,0,0,1-243.2,792.3a85.642,85.642,0,0,0,4,22.568c4.6,14.088,16.991,25.806,17.634,40.966.028.639-.929.8-1.006.135-1.234-10.737-7.321-18.185-12.2-27.373a84.42,84.42,0,0,1-7.948-22.092,96.314,96.314,0,0,1,.637-41.781c-6.9,17.856-14.166,35.561-22.112,52.864.018.8.044,1.571.081,2.323a60.792,60.792,0,0,0,11.733,19.469c4.716,5.153,10.545,9.252,14.273,15.271,5.146,8.311,3.938,17.61,1.4,26.657-.145.52-1,.294-.911-.232,1.367-8.021,2.859-14.568-.472-22.33-3.127-7.283-8.626-11.628-14-17.189A56.557,56.557,0,0,1-263.8,823.831c.79,7.125,2.807,12.7,7.021,20.532,3.341,6.2,5.563,11.954,6.321,19.009,1.458,13.569-2.5,26.921-7.781,39.275C-246.434,900.667-234.335,897.374-224.85,890.749Zm-108.775-.379c8.769,12.358,12.446,26.415,8.144,39.484a73.747,73.747,0,0,1,22.665-16.959c13.263-6.349,27.82-7.636,42.15-9.846.329-.052.661-.111.992-.165a.631.631,0,0,1,.036-.21c6.549-16.886,11.7-34.968,4.212-52.5-2.417-5.658-6.609-10.515-8.557-16.4a37.55,37.55,0,0,1-1.591-13.154c-7.815,16.844-15.66,33.682-24.028,50.261-6.986,13.836-13.662,30.814-25.532,41.23-.486.425-1.032-.337-.6-.774,13.416-13.658,21.284-33.738,29.633-50.775q5.25-10.711,10.325-21.517-.36.381-.726.762c-12.9,23.215-44.573,25.992-58.536,48.62C-334.563,889.075-334.087,889.722-333.625,890.37Zm-2.29-3.1c12.223-20.957,39.339-25.27,54.818-43A53.707,53.707,0,0,1-295.3,853.7c-11.589,5.071-24.116,5.361-34.085,14.061-.563.49-1.2-.393-.7-.895,6.176-6.192,13.6-8.41,21.9-10.664,12.856-3.5,21.866-9.218,31.339-17.664.232-.371.474-.734.7-1.117a.361.361,0,0,1,.577-.03c.345-.315.686-.609,1.034-.93,2-4.246,3.936-8.513,5.9-12.773-10.426,16.017-28.4,25.79-46.785,30.633-.508.135-.726-.7-.24-.887,20.473-7.666,38.748-16.209,49.626-36.016-.123-.423-.262-.831-.377-1.26-.131-.49.7-.718.865-.232.044.125.091.248.133.373.044-.083.093-.159.137-.242.062-.674.125-1.347.2-2.018.061-.566.849-.438.859.093.232-.508.472-1.014.7-1.524,6.452-14.2,12.223-28.7,17.8-43.295a71.773,71.773,0,0,1-9.922,11.4,71.652,71.652,0,0,1-15.271,10.795c-9.89,5.22-16.535,8.853-20.951,19.759-4.192,10.35-9.093,17.326-19.6,22.066-15.148,6.833-35.551,7.112-42.708,24.473C-351.191,868.995-342.869,878.081-335.915,887.267Zm25.038-119.548c7.565,17.993,17.041,34.789-3.952,47.4-15.67,9.416-42.1,12.19-40.424,36.409a32.629,32.629,0,0,0,.54,3.912c3.7-7.422,10.222-12.089,18.142-15.326,7.373-3.014,15.34-4.284,22.7-7.329,10.974-4.537,16.309-11.329,20.663-22.054,4.52-11.126,9.559-14.5,20.078-19.717a70.432,70.432,0,0,0,25.508-21.507c-6.98,6.98-18.078,9.438-27.306,13.831-11.7,5.565-14.947,14.628-21.106,24.871a55.658,55.658,0,0,1-19.475,19.356c-.526.313-1.133-.4-.605-.774,9.361-6.644,16.277-14.057,21.661-24.227,2.655-5.012,4.7-9.9,8.87-13.912,13.108-12.6,36.426-9.7,43.011-29.659.139-.422.625-.292.754.038,4.722-12.537,9.386-25.1,14.257-37.557-7.587,10.462-17.122,19.217-30,22.876-19.04,5.408-41.206,1.389-55.788,17.037Q-312.214,764.551-310.876,767.719Zm-3.492-47.949c-5.565,13.866-4.026,27.016.54,40.25,9.575-10.1,22.957-12.348,36.609-13.952,11.725-1.375,23.3-2.672,33.339-9.607,7.45-5.145,13-12.255,18.148-19.586l.141-.355c-18.66,23.489-58.1,14.219-80.906,32.619-.565.456-1.2-.395-.685-.879,22.185-20.963,58.766-9.674,79.656-31.429-14.457,6.994-34.464-.853-43.688-13.473a59.652,59.652,0,0,1-9.624-20.384C-296.516,689.736-308.067,704.071-314.368,719.77Zm35.1-38.787a.694.694,0,0,1,.26,1.171,55.315,55.315,0,0,0,2.776,8.571c3.458,8.24,9.43,18.072,17.527,22.548a36.913,36.913,0,0,0,27.409,2.686c-24.508,6.724-45.573-22.866-46.188-44.894-.012-.464.7-.581.732-.1,1.712,23.1,23.5,52.941,50.043,42.2a.5.5,0,0,1,.661.637c.692-.369,1.359-.772,2.01-1.2.018-.044.034-.087.052-.129-23.124-2.093-42.1-25.362-42-47.769,0-.591.921-.557,1.006-.006,2.137,13.813,4.46,22.324,15.078,32.143,7.71,7.13,15.775,12.8,26.288,14.682.123-.3.238-.607.361-.911a.612.612,0,0,1,1.137.452l-.066.181a22.632,22.632,0,0,0,1.77-1.581c10.434-13.249,17.626-27.9,10.247-44.955-7.4-17.116-25.461-25.433-43.474-22.155-10.388,1.891-20.915,7.634-24.709,17.763C-280.781,666.827-280.739,674.067-279.269,680.983Zm49.485,34.488c-.468.157-.936.325-1.4.454C-230.715,715.78-230.245,715.637-229.784,715.471Zm-45.559-63.4c.01,0,.014.008.024.008l.05-.056-.1.05Zm-81.43,56.487c15.672-1.748,30.863-12.874,43.3-21.739,12.93-9.214,24.441-19.757,35.462-31.048a27.2,27.2,0,0,1,1.98-2.821c-.468.048-.934.073-1.4.1a136.472,136.472,0,0,1-19.223,7.115.316.316,0,0,1-.238.443c-1.4.258-2.829.526-4.28.8-1.694.432-3.4.815-5.107,1.19-25.75,11.581-45.914,34.94-74.031,41.081C-372.95,707.156-365.234,709.5-356.772,708.56Zm8.636-43.247q-1.509.083-3.012.157c1.292,0,2.579-.046,3.869-.069C-347.565,665.371-347.85,665.347-348.136,665.313Zm-110.035,37.5c11.86-4.121,23.038-13.118,35.123-15.926,8.833-2.054,16.926,2.6,24.439,6.736,5.367,2.95,10.759,6.3,16.34,9.1,25.582-5.984,44.872-26.187,67.575-38.073-21.763,3.561-36.432,21.058-56.132,29.861-.679.3-1.1-.734-.44-1.06,16.11-8.017,30.1-22.3,47.293-27.9-20.28,2.365-41.1,1.669-61.5.055a.357.357,0,0,1-.31.1,105.024,105.024,0,0,0-11.529-.641c-16.967.681-29.052,12.966-42.22,22.892A83.649,83.649,0,0,1-472.8,703.206c-.506.109-.744-.736-.238-.887,7.577-2.234,15.08-4.5,22.062-8.287,9.811-5.329,17.678-13.217,26.671-19.691a56.585,56.585,0,0,1,16.753-8.688,73.652,73.652,0,0,0-19.737,5.077c-12.569,5.22-22.764,14.406-34.672,20.784-17.406,9.325-36.655,8.128-50.92-6.184-.587-.587.429-1.639,1.03-1.053,10.978,10.66,25.865,14.868,40.621,9.894,12.35-4.163,22.332-13.142,33.468-19.6a78.933,78.933,0,0,1,32.833-10.442q-2.741-.369-5.474-.857c-8.023-.875-16.1-1.907-24.153-3.19.044.29-.111.6-.48.528q-4.393-.893-8.646-2.107-8.913-1.655-17.7-3.835c-20.876-3.635-39.466,5.873-58.237,14.809,2.262,8.908,5.416,17.459,11.212,24.929C-495.8,710.661-475.535,708.852-458.171,702.817Zm-79.031-86.2c11.771,14.68,12.92,33.8,17.281,51.636,15.63-8.827,33.111-16.459,50.933-15.6-20.913-5.922-40.843-14.622-58.246-28.01a.535.535,0,0,1,.637-.859c21.292,14.428,44.331,23.54,68.389,29.54a113.2,113.2,0,0,1-40.2-29.57c-.522-.6.452-1.355.974-.76A113.109,113.109,0,0,0-451.021,655c8.422,1.877,16.955,3.412,25.576,4.68-16.626-5.028-32.315-13.4-44.954-25.153-.387-.357.056-1,.5-.673,17.568,13.073,35.663,22.487,56.27,27.393q7.011.845,14.075,1.536c13.307,1.28,26.727,2.333,40.1,2.617a29.837,29.837,0,0,1-8.886-2.151c-9.559-4.006-19.314-9.174-25.256-17.9-6.549-9.611-9.366-19.459-24.7-17.747-5.94.665-11.146,1.77-17.2,1.155a51.9,51.9,0,0,1-28.711-12.539.661.661,0,0,1-.079-.938C-487.766,621.25-514.009,625.044-537.2,616.612Zm74.749-1.794c-.387.1-.782.2-1.171.3.067.024.131,0,.2.055,12.285,9.67,26.256,13.872,41.849,11.61,7.387-1.073,13.108-2.734,19.225,2.645,3.778,3.321,5.716,8.031,8.218,12.251,5.266,8.876,12.733,13.654,21.806,18.2a41.424,41.424,0,0,0,20.126,4.811,51.178,51.178,0,0,1-13.114-4.17c-8.535-4.149-13.624-11.089-18.465-19.037-4.147-6.809-7.67-13.559-14.211-18.491-6.339-4.778-14.154-6.821-21.429-9.64-.431-.169-.268-.907.206-.805,8.442,1.813,16.971,4.837,23.675,10.442,8.392,7.017,11.692,17.493,18.39,25.822,8.791,10.934,21.263,14.753,34.68,15.408,1.175-.018,2.351,0,3.559.1,9.724.091,19.806-1.258,29.248-2.611.738-.143,1.47-.312,2.206-.464a68.612,68.612,0,0,1,18.9-5.095c2.389-.81,4.762-1.694,7.125-2.633-14,2.712-29.133.871-40.285-8.573-5.9-5-9.644-10.194-17.912-11.116-5.853-.653-11.557,1.611-17.388,1.212a16.026,16.026,0,0,1-11.1-4.807c-.563-.556.377-1.52.976-1,10.6,9.194,25.725-.956,37.579,6.539,7.753,4.9,11.856,11.983,21.11,15.225,8.057,2.825,16.58,3.073,24.937,1.966a33.322,33.322,0,0,1-19.205-8.627c-4.289-3.944-6.883-8.6-8.95-13.967-1.274-3.307-1.861-7.323-3.738-10.384-6.783-11.071-13.422-9.579-22.679-7.19-10.985,2.831-20.6,3.994-30.99-1.651-16.707-9.075-30.994-22.092-50.939-11.708a.544.544,0,0,1-.78-.258A209.753,209.753,0,0,1-462.452,614.818Zm151.312-40.291c-13.295,1.29-17.33,8.978-25.36,17.779a23.838,23.838,0,0,1-11.45,7.414c-9.474,2.639-16.255-1.226-23.439-6.857-14.553-11.41-28.107-4.893-41.94,2.414,7.861-2.115,16.15-1.135,24.016,1.98,6.672,2.645,11.954,7.031,17.993,10.761,11.067,6.833,20.594,6.474,32.851,3.3,8.74-2.262,16.86-3.194,22.713,4.926,4.813,6.682,5.029,15.578,9.868,22.382,6.476,9.107,16.894,13.481,27.74,13.521l.01,0c-8.672-3.161-16.352-7.609-19.9-16.565-6.734-16.977-14.313-33.718-35.934-31.686a.76.76,0,0,1-.2-1.506c10.162-1.373,19.523,2.291,26.443,9.878,4.424,4.851,7.075,10.382,9.1,16.565,3.932,12,10.277,17.322,21.439,22.893l.057-.024a50.26,50.26,0,0,1-18.021-23.514.469.469,0,0,1,.865-.359c4.545,9.448,9.872,16.9,17.908,23.538,1.034-.456,2.073-.893,3.1-1.377a31.3,31.3,0,0,1,6.267-4.533c.722-.4,1.468-.744,2.21-1.1-7.857-6.186-10.112-15.7-14.074-24.586-6.748-15.12-16.545-28.276-34.02-30.524a.656.656,0,0,1,.159-1.3c9.926.633,18.2,5.7,24.59,13.2,10.632,12.467,11.793,32.228,24.258,42.757a42.932,42.932,0,0,1,4.026-1.561l.006-.018c7.916-16.959,8.613-36.351-3.444-51.713C-275.1,575.585-293.143,572.783-311.14,574.527Zm-16.352-77.372q2.22,2.827,4.365,5.706a.252.252,0,0,1,.278-.173c8.305,1.563,12.743,6.69,16.035,12.975a38.694,38.694,0,0,1-2.47-10.69c-.107.121-.294.175-.4,0C-312.813,499.784-321.257,497.472-327.492,497.155Zm4.682,6.142c2.474,3.345,4.861,6.752,7.119,10.247.022.02.048.012.067.036,4.7,5.476,9.452,11.029,14.162,16.672C-306.621,519.128-308.954,506.992-322.81,503.3Zm-32.871-39.363c3.45,4.049,6.964,8.067,10.474,12.1-2.161-5.976-6.754-12.864-12.277-15.479a.447.447,0,0,1,.331-.829c6.428,2.454,11.382,10.92,12.961,17.481,5.377,6.178,10.722,12.4,15.811,18.812a31.175,31.175,0,0,1,10.273,2.079c3.635,1.266,7.206,2.708,8.789,6.416a26.3,26.3,0,0,1,1.613-11.212l-.006-.026c-4.581-2.069-10.061-3.883-14.277-6.972l.111.135c.448.542-.413,1.212-.859.671-.252-.3-.49-.613-.74-.917l.056.081c.192.284-.208.609-.427.331-.244-.31-.49-.623-.734-.934a.3.3,0,0,1-.375.083c-7.2-3.809-13.114-10.19-15.309-18.166-.139-.5.555-.833.774-.321,3.093,7.269,7.327,12.991,13.967,17.207-7.837-9.95-15.866-20.09-23.167-30.675-.016.026,0,.052-.024.075a9.1,9.1,0,0,1-5.075,3.1,8.635,8.635,0,0,1-2.944.115l-1.5-.359c-.228-.081-.458-.163-.688-.246a4.439,4.439,0,0,0-1.615,1.321C-359,459.887-357.385,461.935-355.681,463.935Zm3.742-14.434c-4.861.591-9.771-.073-13.448-3.567a18.555,18.555,0,0,1-3.938-5.93,36.115,36.115,0,0,1-1.454-4.01q-.39-1.223-.728-2.46a3.35,3.35,0,0,0-2.77,1.958,188.738,188.738,0,0,0,12.533,20.626,2.287,2.287,0,0,1,.815-.635c1.357-.619,2.994.448,4.315.619a8.014,8.014,0,0,0,7.1-2.819.485.485,0,0,1,.351-.175q-1.277-1.866-2.526-3.748A.444.444,0,0,1-351.939,449.5Zm25.488,31.349q.818,1.012,1.635,2.01c3.059,1.966,5.827,4.1,9.093,5.779,2.69,1.387,5.4,2.732,8.091,4.119a60.3,60.3,0,0,1,2.974-5.319C-312,486.172-319.789,484.366-326.451,480.85ZM-306.222,493c-6.829,17.971,9.416,43.3,26.229,49.578,20.064,7.5,44.561-11.162,48.8-30.617,1.788-8.192-.127-16.392-4.234-23.568a.392.392,0,0,1-.248-.44A47.68,47.68,0,0,0-255.3,469.758C-276.863,459.149-296.264,474.5-306.222,493Zm54.072-80.743c-16.588-2.272-28.193,3.809-38.865,16.4-11.67,13.765-8.071,28.506,2.22,41.92.038.05.022.1.04.149,9.857-6.432,21.788-8.553,34.069-2.518a49.7,49.7,0,0,1,8.8,5.573c11.916-5.631,25.052-17.455,25.877-31.581C-218.983,424.658-237.52,414.259-252.15,412.255Zm58.111,26.25c-7.968-8.476-15.886-10.966-27.258-9.3a24.556,24.556,0,0,1,1.5,3.41c5.7,12.491.623,28.262-7.035,38.855-.472.653-1.371-.067-.982-.73,4.631-7.9,7.924-15.664,8.513-23.7-3.238,12.3-15.027,22.344-25.961,27.256A48.666,48.666,0,0,1-234.4,486.671a62.87,62.87,0,0,1,21.066-12.41.336.336,0,0,1,.262-.177c.131-.016.254-.022.383-.04a47.694,47.694,0,0,1,22.7-2.149A28.587,28.587,0,0,0-194.038,438.506Zm-6.39,166.954c19.546,15.134,43.856,6.057,55.354-14.668.335-.6,1.335-.248,1.026.407-6.89,14.5-21.419,23.586-35.98,23.268,12.15.633,25.3-4.46,32.117-13.517,7.43-9.874,11.906-22.288,7.182-34.258-4.706-11.922-13.342-18.142-25.423-20.463a33.25,33.25,0,0,1,1.395,10.952c-.762,21.727-20.427,36.98-40.96,38.5a.338.338,0,0,1,.153.177A24.661,24.661,0,0,0-200.429,605.46Zm-5.627-11.231c18.779-1.417,36.885-14.223,39.446-33.845A31.11,31.11,0,0,0-168,545.906c-.091-.014-.179-.032-.27-.046a.831.831,0,0,1-.369-1.474,29.9,29.9,0,0,0-4.478-7.482c-.163.139-.311.3-.476.431-.712.585-1.609-.56-.881-1.129.143-.111.266-.238.407-.353-6.428-7.144-16.164-11.571-26.645-12.321-22.8-1.633-39.894,14.666-45.249,35.736-.2.768-1.407.669-1.258-.155a46.812,46.812,0,0,1,10.035-21.6,12.31,12.31,0,0,1-4.992-3.625c-.353-.438.254-1.091.7-.72.827.69,1.573,1.448,2.448,2.085.792.573,1.649,1.04,2.454,1.587a42.99,42.99,0,0,1,34.387-15.128c11.543.458,22.451,5.043,29.49,12.96,6.551-5.839,10.646-13.575,12.946-22.074,3.7-13.676-4.783-25-14.957-33.252a30.992,30.992,0,0,0-14.378-6.438.783.783,0,0,1-.954-.145,44.441,44.441,0,0,0-16.156.809c16.065-.2,28.238,7.17,40.444,18.929.393.377-.073,1.063-.518.7-6.067-4.98-11.87-10.257-18.84-13.979-8.355-4.46-16.422-4.776-25.473-4.474A69.928,69.928,0,0,0-233.953,487.4c4.682,8.073,6.631,17.439,3.907,26.782-5.48,18.786-28.482,35.992-48.439,30.282,9.611,7.339,18.572,14.777,30.75,17.055a.376.376,0,0,1,.51.093c.286.049.563.113.851.157a.5.5,0,0,1-.121.984c-.127-.014-.248-.048-.377-.063C-241.98,581.9-226.421,595.764-206.055,594.228ZM93.1,619.637a151.223,151.223,0,0,1,12.719-20.758,53.983,53.983,0,0,1-31.1,10.527c-14.9.173-28.3-10.313-42.386-8.42q-3.527,1.048-7.057,2.057c-.234.107-.464.175-.7.292a.365.365,0,0,1-.341.01l-.214.062c-18.453,5.252-37.1,9.783-55.764,14.225-3.1.736-6.2,1.484-9.307,2.222,12.751-1.77,24.473,1.553,34.956,9.587,17.338,13.289,31.276,27.959,55.4,22.08.458-.111.665.647.216.8-12.751,4.424-26.121.839-37.218-6.285-8.069-5.18-14.332-12.6-22.239-17.981a44.581,44.581,0,0,0-27.5-7.7c8.109.794,15.816,3.526,22.022,9.1,10.039,9.021,17.664,18.957,29.857,25.427,11.208,5.946,27.584,11.626,40.718,9.011C74.173,654.707,83.849,637.948,93.1,619.637ZM-33.042,646.818c10.47-4.333,20.78,10.37,28.635,14.836a64.341,64.341,0,0,0,55.276,4.139c-15.32,1.323-33.113-6.194-44.908-14.277-9.652-6.617-15.777-16.608-25.024-23.483-8.759-6.511-19.737-7.486-30.51-6.224-4.524,1-9.061,1.889-13.622,2.619-1.6.4-3.174.827-4.7,1.26a.427.427,0,0,1-.532-.518A117.068,117.068,0,0,1-86.4,626.177a.375.375,0,0,1-.381-.318c-5.369.667-10.835,1.317-16.37,1.915a41.748,41.748,0,0,1,13.307,4.349c14.418,7.615,19.568,21.556,38.283,20.55a.486.486,0,0,1,.131.962c-9.275,1.6-16.719-1.6-23.592-7.766-10.482-9.408-19.5-16.13-32.9-17.6q-2.17.217-4.349.422c7.607,2.458,13.136,7.93,18.824,13.9,13.15,13.793,26.943,22.046,46.59,21.181a.528.528,0,0,1,.476.26,59.105,59.105,0,0,0,4.889-7.25C-39.4,653.183-37.2,648.538-33.042,646.818Zm-90.276,6.12c14.9,12.94,35.74,26.586,56.467,23.28a31.1,31.1,0,0,0,19.763-11.331A54.484,54.484,0,0,1-77.42,658.1c-14.049-8.005-21.487-24.479-37.355-29.173-11.642,1.042-23.495,1.72-35.309,1.694C-139.327,634.936-131.905,645.485-123.318,652.939Zm11.924-25.681c.938-.022,1.871-.014,2.8.016q1.955-.184,3.9-.379-2.884.059-5.8.079C-110.791,627.075-111.1,627.163-111.395,627.258ZM11.312,558.9c-15.531-4.543-26.391-18.465-42.98-20.374-22.3-2.567-36.508,13.983-47.4,30.943-8.125,12.652-15.955,24.278-27.9,33.647-11.3,8.864-24.169,15.463-37.585,20.485,11.071,1.081,22.239,1.617,33.436,1.75a.286.286,0,0,1,.21-.274q3.169-.857,6.333-1.714c12.888-5.9,23.651-15.364,32.564-26.72,7.99-10.18,14.991-22.219,26.55-28.845,21.636-12.4,47.37,1.758,69.3-8.059A26.824,26.824,0,0,1,11.312,558.9Zm42.511-23.26c-5.843,4.406-9.831,10.819-15.078,15.844a33.561,33.561,0,0,1-9.228,6.468C6.057,576.073-27.223,553.949-51.1,573.686c-11.692,9.664-18.519,24.183-29.375,34.748a80.719,80.719,0,0,1-17.715,13.132,120.522,120.522,0,0,0,19.671-7.376c12.037-5.962,19.89-14.64,29.131-24.092,13.124-13.422,26.975-16.066,45.249-15.148.728.036.562,1.1-.137,1.105-12.081.01-24.34-.327-34.851,6.676-8.886,5.92-14.783,15.3-22.826,22.213-11.823,10.164-26.8,15.884-41.906,19.413-.78.345-1.551.706-2.347,1.026,4.291.008,8.585-.02,12.878-.115a.65.65,0,0,1,.6.353q4.568-.515,9.069-1.04a.417.417,0,0,1,.452.522,147.3,147.3,0,0,0,20.921-2.071,76.41,76.41,0,0,1,13.3-2.585c5.7-1.25,11.384-2.615,17.088-3.974q7.764-1.851,15.519-3.734a.264.264,0,0,1-.115-.274.34.34,0,0,1,.169-.494c13.825-5.958,26.988-12.18,37.944-22.758,10.442-10.087,18.465-22.336,28.52-32.776,11.727-12.176,26.022-21.378,43.079-20.661-2.159-.873-4.307-1.686-6.446-2.4C75.59,529.643,63.894,528.052,53.823,535.643Zm42.039,1.226C67.787,534.321,50.316,557.9,34.138,577.1,21.829,591.711,8.2,602.533-8.943,609.876c21.687-7.747,36.4-22.35,52.751-39.146C55.226,559,68,548.154,84.621,545.463c.526-.083.611.692.109.809-24.03,5.617-37.96,24-54.7,40.505C18.449,598.2,5.5,606.509-9.792,611.1c12.085-3,24.129-6.147,36.089-9.607a23.806,23.806,0,0,1,6.932-2.036c37.309-11.372,70.75-27.55,104.827-46.519.448-.248.881.5.456.784-29.978,20.386-64.1,34.256-98.7,44.991A34.277,34.277,0,0,1,55.367,599.9c6.615,2.028,12.493,3.782,19.523,2.488,6.809-1.252,13.519-3,20.334-4.236.476-.085.55.619.1.732-9.575,2.4-21.3,6.706-31.22,4.873-3.561-.657-6.932-2.309-10.426-3.252a34.388,34.388,0,0,0-13.485-.877c4.581.776,9.182,2.68,14.459,4.754,17.747,6.97,36.865,3.9,51.965-7.523a.524.524,0,0,1,.663.018c13.866-18.479,31.26-33.305,50.475-47.283C136.642,558.044,115.838,545.336,95.863,536.869Z" transform="translate(542.712 -402.744)" fill="#dfc5b0"></path></g></g></svg>