<svg xmlns="http://www.w3.org/2000/svg" width="917.875" height="902.71" viewBox="0 0 917.875 902.71"><g transform="matrix(-0.53, -0.848, 0.848, -0.53, 337.231, 902.71)"><path d="M-389.012,235.286s25.413,13.349,49.525,5.222,53.892-12.017,71.01,13.807-11.145,27.706,20.066,44.429c0,0,32.967.507,36.991,15.275,0,0,8.925,5.391,2.6,30.791s37.317,26.049,37.317,26.049-21.461,14.526-41.614,6.634-29.349-18.352-41.086-15.351-38.9,26.726-56.813,20.766-26.1-40.512-26.1-40.512-4.933-11.459-17.44-11.648-23.014-12.064-24.976-27.714S-380.3,244.374-389.012,235.286Z" transform="translate(807.851 301.254)" fill="#faf3e1"></path><path d="M-243.388,219.26s2.874,16.4,25.292,36.164,6.8,35.848,6.8,35.848-17.788,19.582.028,30.617,2.649,28.855,2.649,28.855-27.78,22.906,2.448,53.209l-22.079-15.188s-38.511-16.747-35.332-45.631-1.026-25.531-1.026-25.531-21.252-5.406-16.967-31.491S-243.477,255.424-243.388,219.26Z" transform="translate(612.284 284.287)" fill="#faf3e1"></path><path d="M-298.139,186.661c13.018-20.009-13.93-42.242,30.3-49.464s64.715,2.452,78.6-16.938l10-10.622-7.427,9.822s-10.863,24.346,9.767,61.521c0,0,6.42,21.693-3.629,35.069s-27.114,22.009-10.67,49.53c0,0,21.088-18.617,51.4-24.912,0,0-28.919-56.168-33.746-92.631s-5.693-38.4-5.693-38.4l-3.213-21.947-8.861-104.754,8.178-.766s2.611,46.6,11.2,58.459,23.911,27.865,23.911,27.865,5.491,3.383,56.554-12.658c0,0,28.429-14.308,47.72,4.223s20.032,25.57,36.3,28.59S24.434,67.491,47.128,81.12s35.112,33.139,50.825,37.638,31.455-15.763,53.812-6.367,23.09,43.695,85.869,41.3c0,0-20.993,3.109-45.926,28.5s-41.928,40.361-57.271,43.451c0,0-1.656,27.926-29.466,38.456,0,0,7.572,2.242,22.866-5.34s39.059-1.79,39.059-1.79-12.851,8.9-17.143,12.925-17.661,14.392-42.781,13.83c0,0,39.443,29.319,25.775,46.9,0,0-6.214,3.746-14.14-6.823s-25.515-26.721-25.515-26.721,20.885,23.633,4.916,47.958-53.653,19.654-53.653,19.654-56.308-3.253-68.24-72.633c0,0-22.677,1.516-39.8-32.255l-19.428,7.09s15.913,13.835,16.337,33.756l26.168,51.708s24.456-4.649,36.934,3.693,29.99,29.882,29.99,29.882,19.6-16.829,31.7-11.763S76.8,401.4,90.314,399.687s15.1-18.583,34.917-13.107S140.648,413,164.115,421.63c0,0-20.645,6.751-34.094,21.82s-22.827,22.066-26.851,22.81-13.02-1.661-13.02-1.661-15.213-12.677-23.837-4.634-13.472,20.488-29.756,12.721-22.142-13.148-22.142-13.148l-23.33,6.288-6-2.161s-27.816,5.461-48.577-42.056c0,0-11.76,7.684-32.359,2.452,0,0,10.093,13.773,11.5,30.4s7.506,25.493,7.506,25.493-19.9-5.572-31.292-27.288c0,0,6.066,20.626-8.581,30.465,0,0,7.436-11.241.136-32.766s-3.169-34.908-3.169-34.908-4.006,2.3-4.933,21.332-24.04,38.414-43.373,32.306c0,0,21.951,2.441,31.884-25.786,4.132-11.735,7.616-19.1,10.282-23.716-5.069,5.489-13.268,12.318-24.043,14.422-18.906,3.69-28.153-5.167-28.153-5.167s-13.029-6.318-15.1-13.476c0,0,15.691,9.574,32.047,1.22,15.063-7.7,23.678-6.473,24.948-6.231-2.42-.488-30.978-6.526-42.393-22.59-11.926-16.779-11.6-20.376-11.6-20.376s10.643,8.664,28.847,8.344,37.358,16.363,41.871,28.9c0,0-2.261-7.065-1.236-20.452,0,0-37.841,2.1-41.239-45.1,0,0-18.488-10.878-31.606-23.432,0,0-29.629,12.062-33.693,23.445s-19.777,65.29-32.664,72.766-71.161,17.534-96.06,45.79c0,0,9.888-12.45-1.818-38.1s-25.343-37.954-20.123-57.146,30.306-10.193,25.7-34.713-30.128-36.647-28.668-79.871S-311.157,206.667-298.139,186.661ZM-150.006,78.31c-4.17-13.788-25.655-34.446-25.655-34.446s-2.07,44.94,6.95,82.062,30.026,62.03,30.026,62.03a39.513,39.513,0,0,1,23.527-21.283C-129.033,148-145.834,92.1-150.006,78.31Zm68.86,285.8c-2.454,8.836-11.018,31.476-17.758,36.594a33.876,33.876,0,0,1,24.344-.3l5.457-.927s-1.6-17.642,2.078-25.241,22.265-18.713,22.265-18.713l-21.716-39.4s-1.275,11.661-8.193,14.925l-4.736,18.785,7.907-2.392S-78.695,355.279-81.147,364.113Z" transform="translate(381.584 18.532)" fill="#faf3e1"></path><path d="M-339.9,58.521c-1.68-.318-3.283-.978-4.967-1.311a38.927,38.927,0,0,0-5.538-.689.36.36,0,0,1,.03-.719c3.468-.155,7.758.155,10.808,1.981C-339.138,58.038-339.465,58.6-339.9,58.521Z" transform="translate(894.523 101.027)" fill="#dfc5b0"></path><path d="M-306.017,49.943c-2.38,1.36-5.733,1.595-8.409,1.9-.683.076-.946-.954-.24-1.067,2.789-.445,5.637-1.572,8.439-1.754C-305.713,48.985-305.626,49.721-306.017,49.943Z" transform="translate(785.325 93.461)" fill="#dfc5b0"></path><path d="M-180.508,31.275c.028.39-.56.405-.655.059a27.708,27.708,0,0,1-.257-12.433c.57-3.041,1.656-5.932,1.5-9.063-.2-4.157-2.32-7.6-4.329-11.133-.1-.178.172-.388.3-.216,3.145,4.182,5.75,8.579,5.029,13.99C-179.782,19.02-180.974,24.588-180.508,31.275Z" transform="translate(380.893 36.752)" fill="#dfc5b0"></path><path d="M-326.823,125.031c22.8-2.293,42.27-10.974,59.475-26.053a.471.471,0,0,1,.649.683A95.394,95.394,0,0,1-326.706,126.3C-327.425,126.354-327.548,125.1-326.823,125.031Z" transform="translate(772.036 149.324)" fill="#dfc5b0"></path><path d="M-236.47,184.528c13.527,2.99,26.694,2.015,40.34.394.927-.11,1.262,1.321.322,1.432-13.553,1.61-27.691,3.355-40.9-1.046A.408.408,0,0,1-236.47,184.528Z" transform="translate(509.17 245.343)" fill="#dfc5b0"></path><path d="M-160.012,194.525c-16.709-5.869-33.016-13.879-47.169-24.592-.524-.395-.036-1.239.543-.882,15.188,9.334,30.367,17.775,46.912,24.533C-159.149,193.818-159.408,194.737-160.012,194.525Z" transform="translate(410.576 227.911)" fill="#dfc5b0"></path><path d="M-209.046,197.116a.547.547,0,0,1,.045-1.092c16.214-.066,31.854-6.04,47.354-10.2.649-.174.863.823.227,1.012C-176.66,191.368-192.914,197.873-209.046,197.116Z" transform="translate(416.768 246.781)" fill="#dfc5b0"></path><path d="M-202.306,238.912a190.545,190.545,0,0,1-26.113-50.382c-.125-.373.5-.611.658-.242a322.548,322.548,0,0,0,26.21,50.079C-201.269,238.808-201.994,239.342-202.306,238.912Z" transform="translate(497.265 249.363)" fill="#dfc5b0"></path><path d="M-204.861,167.226a.36.36,0,0,1,.613.378c-4.884,8.857-12.742,16.34-20.776,22.32-.335.248-.793-.208-.456-.484C-217.427,182.861-211.319,175.307-204.861,167.226Z" transform="translate(493.955 225.79)" fill="#dfc5b0"></path><path d="M-241.05,178.727c-17.924-10.106-26.753-29.856-33.542-48.391-.148-.407.543-.664.721-.267,8.3,18.681,15.8,36.024,33.112,48.187A.277.277,0,0,1-241.05,178.727Z" transform="translate(634.351 184.09)" fill="#dfc5b0"></path><path d="M-293.515,137.237c14.556,21.19,33.937,35.381,59.33,40.666.456.1.329.889-.136.812-24.836-4.121-47.691-18.783-60.06-41.016C-294.694,137.133-293.863,136.728-293.515,137.237Z" transform="translate(669.69 192.086)" fill="#dfc5b0"></path><path d="M-251.319,165.666c.373-.023.428.592.059.655-17.784,3.044-36.52-2.314-51.095-12.552-.161-.112-.008-.367.159-.261C-286.49,163.467-269.667,166.7-251.319,165.666Z" transform="translate(703.709 210.558)" fill="#dfc5b0"></path><path d="M-250.77,168.135c-10.306-9.353-18.668-21.005-23.273-34.212-.146-.42.545-.668.734-.271,6.045,12.7,13.152,23.9,23.012,34.036C-250,167.991-250.462,168.413-250.77,168.135Z" transform="translate(642.752 188.104)" fill="#dfc5b0"></path><path d="M-244.314,138.8c17.633,3.086,33.846-3.343,49.909-9.892.532-.216.965.539.431.806-15.415,7.726-33.175,13.612-50.6,10.558-16.437-2.882-26.921-14.348-37.954-25.975-.329-.346.187-.817.532-.5C-270.25,124.356-260.706,135.934-244.314,138.8Z" transform="translate(604.448 165.957)" fill="#dfc5b0"></path><path d="M-292.45,140.727c-.344.023-.392-.543-.055-.6,25.884-4.433,46.9-11.444,65.519-30.645.24-.248.693.106.479.39C-241.739,129.91-268.049,139.185-292.45,140.727Z" transform="translate(658.602 161.141)" fill="#dfc5b0"></path><path d="M-296.5,131.041c8.395-7.154,16.475-13.746,23.222-22.581.354-.467,1.116-.028.789.486-5.9,9.217-14.817,16.329-23.65,22.6C-296.429,131.745-296.769,131.268-296.5,131.041Z" transform="translate(712.762 159.868)" fill="#dfc5b0"></path><path d="M-229.02,134.041c-10.855-3.5-21.307-9.883-28.4-18.95a.485.485,0,0,1,.7-.666c8.28,8.295,16.87,14.681,27.943,18.81C-228.27,133.422-228.5,134.209-229.02,134.041Z" transform="translate(585.993 166.605)" fill="#dfc5b0"></path><path d="M-260.632,106.235c-9.281,9.44-20.128,19.075-33.143,22.706-.348.1-.564-.458-.223-.6,12.755-5.463,22.5-13.578,32.643-22.866A.526.526,0,0,1-260.632,106.235Z" transform="translate(695.671 156.579)" fill="#dfc5b0"></path><path d="M-248.653,75.866c-.32-.305.119-.831.486-.6,12,7.65,18.759,23.8,17.788,37.555a.449.449,0,0,1-.9-.036C-231.125,98.29-238.264,85.677-248.653,75.866Z" transform="translate(569.179 122.82)" fill="#dfc5b0"></path><path d="M-190.754,73c-22.312,12.132-31.782,37.281-20.176,60.56a.346.346,0,0,1-.611.324c-12.492-22.494-4.045-51.521,20.39-61.629C-190.658,72.047-190.268,72.73-190.754,73Z" transform="translate(462.626 119.461)" fill="#dfc5b0"></path><path d="M-183.065,72.675c-21.107-2.766-38.872,6.6-49.095,25.245-.267.486-.942.036-.719-.443,9.046-19.445,28.955-29.364,49.973-25.748C-182.37,71.82-182.52,72.747-183.065,72.675Z" transform="translate(487.87 118.095)" fill="#dfc5b0"></path><path d="M-245.468,72.884c14.734,5.167,24.467,19.2,26.354,34.344.055.441-.613.609-.689.155-2.611-15.693-12.214-26.592-26.089-33.559C-246.42,73.558-246.019,72.691-245.468,72.884Z" transform="translate(552.438 120.181)" fill="#dfc5b0"></path><path d="M-240.457,119.359c-.331.036-.454-.467-.117-.513,13.553-1.924,24.56-7.637,35.277-15.907.346-.267.8.185.475.5C-214.384,112.837-227.3,117.864-240.457,119.359Z" transform="translate(526.656 153.811)" fill="#dfc5b0"></path><path d="M-220.2,103.4c5.519,5.591,11.13,9.919,18.683,12.429a.325.325,0,0,1-.191.621c-7.389-2.064-14.59-6.269-19.105-12.609C-221.064,103.487-220.488,103.109-220.2,103.4Z" transform="translate(481.033 154.304)" fill="#dfc5b0"></path><path d="M-203.3,122.249c-8.751-8.24-13.727-20.475-11.788-32.528a.381.381,0,0,1,.761.03c-.231,12.3,3.039,22.876,11.57,31.985C-202.423,122.087-202.949,122.575-203.3,122.249Z" transform="translate(470.996 138.692)" fill="#dfc5b0"></path><path d="M-221.988,105.38c1.574,3.93,1.137,10.573-3.37,12.18-5.888,2.1-9.056-7.256-9.44-11.311-.045-.481.679-.672.757-.17.543,3.478,3.427,11.858,8.261,10.066,4.356-1.616,3.69-7.625,2.454-11.133-.021-.059.013-.1.013-.153-.159-.327.074-.8.5-.638,3.489,1.275,10.161-1.2,8.918-5.752-1.169-4.269-5.875-4.5-9.457-4.948a.426.426,0,0,1-.388-.356.288.288,0,0,1-.108-.35c1.421-3.26,2.31-9.9-3.05-10.015-3.731-.076-6.861,3.067-7.434,6.5a.335.335,0,0,1-.657.059c-1.241-4.2,5.234-8.059,8.8-7.517,5.34.812,4.861,6.993,3.239,10.753,4.38-.131,9.922,1.936,10.119,7.014C-212.667,103.906-218.168,106.169-221.988,105.38Z" transform="translate(522.828 130.201)" fill="#dfc5b0"></path><path d="M-212.849,102.441a.423.423,0,0,1,.4.747,11.9,11.9,0,0,1-6.484,1.646c-1.489-.064-3.434-.168-4.144-1.69-1.485-3.186-.42-7.686,2.876-9.008-2.7-1.472-5.985-4.352-4.291-7.65,1.919-3.735,8.289-2.013,11.326-1.067a.361.361,0,0,1-.21.689c-2.628-.575-6.706-1.4-9.056.182-3.724,2.509.7,6.049,2.974,7.6.093-.021.168-.07.265-.087a.38.38,0,0,1,.165.742c-2.916.848-4.935,5.9-2.566,8.272C-219.644,104.769-215.042,103.414-212.849,102.441Z" transform="translate(500.635 132.884)" fill="#dfc5b0"></path><path d="M-148.808,166.373c.416.083.3.77-.123.73-22.342-2.123-44.221-13-60.259-28.524-.352-.341.185-.821.543-.515C-190.874,153.243-171.607,161.8-148.808,166.373Z" transform="translate(403.753 193.164)" fill="#dfc5b0"></path><path d="M-227.883,157.342c12.526.051,22.919-3.987,33.071-11.048.333-.233.717.314.416.577-9.137,8.055-21.491,11.574-33.506,10.982A.256.256,0,0,1-227.883,157.342Z" transform="translate(489.44 202.435)" fill="#dfc5b0"></path><path d="M-190.053,158.575a109.17,109.17,0,0,0,15.044,3.241,92.169,92.169,0,0,0,21.638-2.136.4.4,0,0,1,.174.783c-18.859,5.6-41.763,3.754-58.826-6.439-.322-.193-.087-.764.278-.613a112.917,112.917,0,0,0,22.473,6.9c-15.8-3.89-30.917-12.087-41.879-23.763-.337-.361.182-.817.541-.515,11.727,9.886,23.818,17.018,37.462,21.51a81.955,81.955,0,0,0,60.633-17.194c.312-.242.738.193.426.452A77.807,77.807,0,0,1-190.053,158.575Z" transform="translate(433.754 190.882)" fill="#dfc5b0"></path><path d="M-266.1,196.781c5.12,6.282,10.672,12.723,18.388,15.818,6.821,2.738,14.068,2.634,21.226,3.582a.374.374,0,0,1-.03.747c-7.748.242-16.426-.761-23.487-4.132-7.088-3.385-11.833-9.538-16.56-15.578C-266.815,196.9-266.363,196.461-266.1,196.781Z" transform="translate(602.945 258.965)" fill="#dfc5b0"></path><path d="M-273.669,200.8c-.31-.257.112-.755.441-.543,13.133,8.5,26.505,7.046,41.222,4.541a.5.5,0,0,1,.218.971C-245.471,209.249-262.131,210.4-273.669,200.8Z" transform="translate(623.356 262.93)" fill="#dfc5b0"></path><path d="M-294.678,93.954c.295-.38,1.041-.155.838.378a11.051,11.051,0,0,0,3.315,12.384c3.463,2.817,6.823-.435,7.777-3.809a11.61,11.61,0,0,0-.6-7.188c-.151-.443.511-.624.734-.271,2.725,4.331.8,14.969-6.045,13.546C-293.978,107.886-298.094,98.346-294.678,93.954Z" transform="translate(720.34 143.618)" fill="#dfc5b0"></path><path d="M-280.5,90.515c-2.925-2.165-9.864-1.06-7.763,3.871,1.156,2.711,3.977,5.088,7.018,4.636a.361.361,0,0,1,.248.668c-3.712,2.182-8.791-3.338-8.865-6.865-.108-5.1,6.757-5.4,9.44-2.405C-280.372,90.471-280.436,90.56-280.5,90.515Z" transform="translate(706.452 137.719)" fill="#dfc5b0"></path><path d="M-290.733,89.556l.008-.013,1.15.819-.006.013Z" transform="translate(717.481 138.886)" fill="#dfc5b0"></path><path d="M-292.471,92.53c.244.431-.411.766-.672.358a3.438,3.438,0,0,1,1.637-5.05c1.612-.541,4.2.464,4.089,2.456a.146.146,0,0,1-.25.093c-.831-.995-1.845-2-3.287-1.726C-292.675,88.988-293.25,91.147-292.471,92.53Z" transform="translate(721.552 136.813)" fill="#dfc5b0"></path><path d="M-230.623,140.173c-1.09-1.374-2.091-2.98-1.665-4.787.308-1.3,1.65-3.02,3.167-2.443a.42.42,0,0,1-.03.8c-1.317.433-2.265,1.194-2.17,2.736a7.178,7.178,0,0,0,1.586,3.512.3.3,0,0,1,.235.335l.042.064c.252.354-.344.78-.621.448l-.017-.021c-2.093,1.26-4.282,2.658-5.054,5.135a2.384,2.384,0,0,0,2.433,3.287c1.62-.03,3.014-1.15,4.2-2.127.314-.257.74.18.437.462-1.376,1.283-2.912,2.761-4.923,2.742a3.408,3.408,0,0,1-3.313-2.174C-237.446,144.818-233.736,141.083-230.623,140.173Z" transform="translate(540.897 187.405)" fill="#dfc5b0"></path><path d="M-170.284,150.975c-9.816-5.57-21.491-7.936-28.768-17.169a.409.409,0,0,1,.594-.562,41.105,41.105,0,0,0,15.733,10.286,57.938,57.938,0,0,1,13.052,6.454A.582.582,0,0,1-170.284,150.975Z" transform="translate(403.075 187.727)" fill="#dfc5b0"></path><path d="M-235.283,163.706c-30.573-.3-6.009,52.624,1.024,64.107.254.416-.392.736-.66.35-7.321-10.554-33.209-68.809-.322-65.506A.526.526,0,0,1-235.283,163.706Z" transform="translate(578.946 220.688)" fill="#dfc5b0"></path><path d="M-181.39,185.21c.329.151.064.6-.242.539-6.679-1.372-11.6-6.106-15.328-11.627-4.17-6.172-8.884-14.473-8.628-22.13a.457.457,0,0,1,.912.036C-204.48,165.205-192.762,180.033-181.39,185.21Z" transform="translate(428.58 208.411)" fill="#dfc5b0"></path><path d="M-214.65,168.6a16.883,16.883,0,0,0,7.733,1.347c2.49-.174,4.577-1.15,6.916-1.89a.342.342,0,0,1,.308.577c-4.076,3.453-10.8,2.878-15.3.73C-215.422,169.159-215.091,168.417-214.65,168.6Z" transform="translate(467.282 226.879)" fill="#dfc5b0"></path><path d="M-181.374,179.873c.634.085.617,1.069-.04,1.01-13.665-1.243-28.4-11.281-30.821-25.589-.064-.373.477-.621.655-.244C-205.4,168.23-196.526,177.848-181.374,179.873Z" transform="translate(442.342 212.103)" fill="#dfc5b0"></path><path d="M-260.512,336a19.787,19.787,0,0,0-4.518-8.588.561.561,0,0,1-.889-.375c-.049-.257-.089-.526-.136-.787-4.515-4.925-10.422-9.056-13.29-15.107-3.347-7.061-4.874-16.007-1.595-23.3,3.608-8.023,12.231-13.336,18.569-18.916a56.373,56.373,0,0,0,19.112-38.151c-.087-.568-.131-1.124-.225-1.692a.412.412,0,0,1,.772-.261c-.59-5.985-.774-12.172-.9-18.117-.015-.617,1.01-.725,1.092-.1a108.829,108.829,0,0,1,.995,18.84c4.344,21.99,27.309,29.084,35.665,48.6a25.914,25.914,0,0,1,1.661,16.834c-2.407,9.754-12.1,16.509-12.242,26.927,4.844,14.125,22.473,15.387,15.336,32.936-2.727,6.706-8.178,11.3-11.924,17.345-9.854,15.9.388,29.023,8.723,42.047a.466.466,0,0,1-.042.534c.093.1.2.193.295.3a.492.492,0,0,1-.713.677c-14.7-14.912-35.029-22.333-49.025-38.541-4.068-4.711-8.725-10.212-9.756-16.6C-264.875,352.29-260.283,344.18-260.512,336Zm18.354-25.879c.831-11.858,1.506-23.506,1.665-35.167-.176-.218-.325-.437-.507-.657a.364.364,0,0,1,.515-.511c.021-1.966.055-3.93.04-5.9-.88,5.866-2.6,11.625-6.148,16.316-3.283,4.346-8.038,6.755-11.883,10.469-8.787,8.479-7.489,19.9-6.3,30.874A21.98,21.98,0,0,1-259.4,333.4c1.08-4.2,4.384-6.836,7.779-9.637A28.856,28.856,0,0,0-242.158,310.116Zm-20.611-38.427c-15.468,13.107-24.5,30.405-8.115,47.85,1.44,1.533,2.954,2.935,4.42,4.339-1.557-9.6-1.885-20.157,4.571-28.045,4.053-4.952,10.062-7.54,13.947-12.7,4.03-5.355,5.478-11.629,6.439-18.047-2.021,5.1-5.362,9.476-9.192,13.629-7.6,8.235-14.851,15.186-19.7,25.487-.187.4-.725.074-.651-.293,3.682-18.221,25.037-26.318,30.113-44.42a.46.46,0,0,1,.24-.3l.021-.165c-.274-7.529-.88-15.137-1.873-22.863C-244.046,250.332-251.774,262.37-262.769,271.689Zm56.278,64.238c-4.214-5.22-9.266-7-11.591-13.633a.862.862,0,0,1-.055-.136c-.008-.025-.021-.044-.03-.07a.751.751,0,0,1-.028-.221v0h0a.763.763,0,0,1,.011-.21c.089-5.213,1.826-8.263,4.628-12.7,9.171-14.53,11.071-27.095-.46-40.83-10.426-12.416-24.125-20.066-27.816-36.024a.461.461,0,0,1-.206.072,218.022,218.022,0,0,1,3.6,26.4c.18-.307.749-.325.8.1,1.644,14.219,20.308,19.175,20.153,33.708a.507.507,0,0,1-1,.089c-2.093-13.167-17.665-18.494-19.788-31.023.276,4.486.414,8.976.443,13.47a38.729,38.729,0,0,1,12.3,16.806c2.963,7.877,1.283,16.257,3.975,23.985.189.543-.685.846-.937.348-2.918-5.712-1.357-12.03-2.624-18.225-1.777-8.7-6.471-15.839-12.709-21.879,0,.314.011.626.008.94,6.706,8.458,8.509,17.128,9.62,28.316,1.285,12.933,6.821,22.52,17.271,30.293,3.737,2.783,6.344,4.316,8.539,7.364A25.3,25.3,0,0,0-206.491,335.928Zm5.088,11.215c-.072-.059-.161-.078-.21-.182-5.548-11.909-20.257-15.557-25.332-28.781-5.334-13.9-2.863-26.734-10.849-39.449a295.848,295.848,0,0,1-1.936,30.906c-.106.925-.2,1.866-.3,2.8,3.684,9.686,7.082,17.892,13.975,25.968,4.223,4.946,8,9.347,9.877,15.733.127.437-.543.674-.747.276-4-7.807-9.553-13.432-14.573-20.456-4.17-5.839-6.732-12.715-8.738-19.591-.059.583-.115,1.167-.17,1.752a80.405,80.405,0,0,1-.893,12.594q-.15,3.318-.178,6.651a28.278,28.278,0,0,0,13.283,21.387c4.467,2.878,8.976,4.971,11.771,9.64.189.316-.3.679-.534.384-5.332-6.624-13.835-8.815-19.254-15.292a25.431,25.431,0,0,1-5.209-10.155q.134,4.775.609,9.506c3.506,7.343,11.7,9.271,17.2,14.929a20.953,20.953,0,0,1,5.824,10.889c.034-.083.051-.165.087-.248C-213.163,365.826-200.561,358.187-201.4,347.143ZM-240.5,353.68c.163.248.325.5.488.742-.178-.284-.346-.577-.5-.882C-240.506,353.586-240.5,353.633-240.5,353.68Zm32.484,57.288c-6.685-9.307-13.68-20.427-10.675-31.653a.689.689,0,0,1-.2-.394c-.942-10.8-8.95-15.4-17.135-20.634a12.456,12.456,0,0,1-3.7-3.449c2.808,4.136,5.922,7.936,10.2,10.732,2.8,1.83,5.22,3.126,6.868,6.174a.327.327,0,0,1-.524.378c-3.086-3.521-7.08-5.362-10.515-8.431a35.341,35.341,0,0,1-6.528-8.081c2.1,14.488,7.118,28.272,17.364,39.644a.644.644,0,0,1-.935.884c-13.62-12.573-19.018-34.709-19.82-54.183-3.775,10.24-2.532,20.021-.857,31,.057.38-.488.638-.668.248-2.507-5.393-2.378-12.223-2.452-18.072-.07-5.519.887-10.933,3.911-15.561-.008-.4-.017-.8-.023-1.2-.212.611-.4,1.228-.636,1.832-1.472,3.746-3.72,6.993-5.576,10.541-4.876,9.319-4.511,18.967.776,28.062a.489.489,0,0,1-.354.744c3.029,3,6.206,5.712,9.037,8.1C-230.4,396.144-217.729,402.077-208.014,410.968Zm-42.7-32.651c-4.638-7.843-5.695-16.885-1.849-25.417,2.817-6.252,6.781-11.517,8.7-18.259.066-.231.11-.464.172-.7.042-1.871.11-3.714.233-5.483q.48-6.891.971-13.633a25.37,25.37,0,0,1-1.869,3.347c-4.272,6.289-12.373,9.154-14.335,16.942a.4.4,0,0,1-.155.2c.036.155.1.288.131.45a.361.361,0,0,1,0,.049,1,1,0,0,1,.042.182c.163,7.058-3.217,13.372-3.264,20.27C-261.991,364.558-256.809,372.019-250.712,378.316Z" transform="translate(610.424 274.109)" fill="#dfc5b0"></path><path d="M230.323,152.975a.61.61,0,0,1-.134,1.088,117.449,117.449,0,0,0-47.644,31.286c-10.2,10.834-20,21.474-32.738,29.4a137,137,0,0,1-22.815,11.266c.008.04.042.057.045.1.2,14.639-11.966,32.075-26.433,36.577,20.528-.568,40.556-14.6,60.527-5.989.119-.04.225-.093.346-.134.938-.3,1.273,1.2.335,1.5-13.64,4.4-21.118,17.353-34.378,22.357a60.968,60.968,0,0,1-15.275,3.353c14.051,6.17,25.483-5.7,39.139-7.4a29.131,29.131,0,0,1,21.542,6.1c.354.269.015.855-.371.6-.713-.471-1.41-.867-2.106-1.266a20.169,20.169,0,0,1,1.96,1.347c.329.259.006.814-.35.566-16.607-11.544-33.008,10.6-50.785,6.908.984.694,1.945,1.429,2.876,2.233,3.843,3.326,6.325,7.567,9.444,11.491,7.05,8.868,14.918,12.988,26.63,11.211a.492.492,0,0,1,.57.558c.1-.015.189-.023.289-.04a.243.243,0,0,1,.106.473c-9.266,2.575-18.766,2.8-26.931-2.867-10.812-7.5-14.961-19.345-27.112-24.863,11.315,10.549,25.9,27.727,18.742,41.824a.593.593,0,0,1-.5.35c-4.98,2.717-8.522-.976-12.028-4.626-7.883-8.206-15.867-16.465-23.362-25.048a49.239,49.239,0,0,1,5.949,16.441c3.347,19.816-7.922,37.665-26.331,45.035-20.312,8.134-41.924,1.455-60.45-7.966-23.559-11.981-36.293-34.63-41.706-60.06a.568.568,0,0,1,1.107-.248c5.256,20.223,14.552,42.6,32.908,54.213,16.969,10.734,38.842,19.319,59.195,15.179,14.651-2.98,26.278-12.42,31.434-24.874a7.241,7.241,0,0,1-7.063,1.243c-.522-.187-.439-1.12.172-1.016,2.619.443,5.55.308,7.082-2.244a4.71,4.71,0,0,0-2.456-6.56.433.433,0,0,1-.534-.4c.006-1.8.259-3.417-.488-5.158-.98-2.284-2.884-4.121-5.559-3.359-3.548,1.01-5.544,4.867-5.514,8.348,0,.021-.017.03-.021.049.123.051.254.1.365.155.52.238.123,1.118-.411.914a17.942,17.942,0,0,0-4.524-1.228c-2.282-.24-5.3.431-4.891,3.376a6.419,6.419,0,0,0,8.681,4.889.36.36,0,0,1,.339.634c-.072.049-.153.059-.225.1a6.332,6.332,0,0,1-1.173,1.707,12.735,12.735,0,0,0-1.716,1.972c-.787,1.334-.121,3.807,1.9,3.5,3.014-.46,5.822-3.374,7.593-5.654.337-.433,1.041-.032.742.458a14.838,14.838,0,0,1-5,4.991c-1.482.9-3.773,2.161-5.533,1.232-3.309-1.746-.736-5.372,1.389-7.508-3.843.747-8.11-2.73-8.3-6.738-.261-5.444,6.532-4.373,10.149-3.039-.621-4.386,2.634-9.559,7.4-9.739,4.409-.165,7.315,6.615,5.578,10.189a5.354,5.354,0,0,1,3.726,3.521,39.353,39.353,0,0,0-.2-19.654c-5.8-22.083-25.807-35.252-45.088-44.779a.528.528,0,0,1-.445.138,11.2,11.2,0,0,1-3.05-.768.772.772,0,0,1-.386-.346C30.33,282.274,8.118,289.786-10.175,292.95c-27.591,4.774-49.1-7.2-61.873-32.225a51.882,51.882,0,0,1-9.65,4.539,40.914,40.914,0,0,1-7.61,1.809c6.4,8.1,12.891,19.351,15.894,30.711,8.787,18.144,17.4,36.42,25.364,54.942,24.35-7.589,49.786,6.367,63.4,28.386.028.045,0,.083.017.125.876,1.188,1.75,2.443,2.619,3.737,9.642-4.407,21.565-11.85,32.588-10.435,14.874,1.907,20.407,29.915,37.05,22.98.011-.006.006-.021.019-.028,10.242-6.63,18.471-16.373,31.568-10.515,16.524,7.389,20.113,28.255,37.457,35.025a.557.557,0,0,1,.369.157c.155.057.293.136.45.191a.408.408,0,0,1-.24.781c-.068-.017-.125-.045-.193-.062a.625.625,0,0,1-.314.244,69.658,69.658,0,0,0-35.9,22.437c-5.642,6.484-10.891,13.926-18.554,18.229a26.9,26.9,0,0,1-15.814,3.438c-8.223-.8-14.015-7.775-21.994-8.53-7.054,2.458-10.117,9.928-16.482,13.563a23.072,23.072,0,0,1-12.437,3.118c-10.409-.484-21.22-9.427-29.6-15.048A41.172,41.172,0,0,1-16.36,466.2c12.2,17.173,27.347,32.531,42.053,47.875a.857.857,0,0,1,.407.119c17.47,10.265,33.209,14.719,53.235,9.408,13.7-3.633,26.995-7.279,41.3-4.9,10.554,1.758,20.522,6.861,27.311,15.258,9.215,11.4,5.451,23.031,9.16,36.064,10.556,20.883,45.256,6.715,54.6,31.792,3.16,8.477.059,15.572-.165,24.13a29.992,29.992,0,0,0,.119,3.646.545.545,0,0,1,.023.151c1.68,16.585,17.659,21.383,32.229,24.038l2.641-.717c.857-.231,1.133,1.077.3,1.336-.25.078-.5.155-.757.233.011.341-.189.706-.583.651-.344-.047-.685-.108-1.026-.157-11.234,3.446-22.984,6.522-34.8,5.936-15.364-.763-26.535-12.825-41.239-13.559-24.047-1.2-47.324,32.692-71.492,12.672-7.438-6.161-11.22-15.1-14.011-24.094-2.367-7.627-2.952-11.8-9.589-17.154-5.667-4.571-7.529-4.6-13.648-6.4-4.066-1.192-7.449-2.443-10.588-5.425-8.81-8.371-10.619-23.442-11.635-34.7-1.716-19.016-.3-38.658-10.948-55.2-15.51-16.3-31.8-32.543-44.363-51.057-18.049-.937-36.244-11.909-44.7-26.931a155.332,155.332,0,0,1-8.409-17.247c-.045.047-.051.108-.121.144-9.567,4.8-20.77,8.522-31.01,3.459-.318-.157-.076-.679.254-.562,10.632,3.718,20.433.921,30.191-3.96a.5.5,0,0,1,.3-.019,93.4,93.4,0,0,1-5.875-20.94c-3.41,1.247-6.435.551-9.964-.072a54.666,54.666,0,0,0-8.664-.827c-5.209-.081-9.01,1.457-13.385,3.8a40.8,40.8,0,0,1-10.119,5.69,16.269,16.269,0,0,1,2.7,4.322.555.555,0,0,1-.978.522c-1.936-2.823-3.65-5.75-6.747-7.48a10.34,10.34,0,0,0-10.375-.1c-.479.28-.831-.443-.4-.744a9.748,9.748,0,0,1,7.75-1.557c-9.124-16.872-25.256-24.115-43.6-27.508-9.5-1.756-19.281-1.586-26.645-8.384,9.275,21.625,26.477,33.648,47.846,42.041a.5.5,0,0,1,.3.32c6.219-1.552,12.594-1.9,19.307.7.838.325.452,1.656-.411,1.349-24.229-8.568-45.483,20.789-68.58,4.662,19.763,24.533,52.1,20.974,70.478-3.818a.429.429,0,0,1,.73.45c-.182.314-.384.609-.573.914a.639.639,0,0,1,.221,1.067c.238-.348.838-.17.694.293-.161.515-.3,1.031-.445,1.548a29.467,29.467,0,0,1,1.224-3.133c.193-.42.855-.1.725.329-7.09,23.406,15.449,46.092,2.967,68.412,15.2-18.7-1.192-47.557-2.356-69.023-.023-.45.749-.526.793-.072,1.1,11.141,6.821,25.559,9.128,39.228,3.835,4.679,7.075,9.813,11.084,14.371,5.169,5.879,11.1,8.823,17.985,12.062a55.69,55.69,0,0,1-7.519-24.1c-1.86-19.254-8-33.553-26.87-41.549-.556-.235-.3-1.137.278-.912,10.562,4.072,19.171,11.2,24.1,21.587A42.26,42.26,0,0,1-92.952,446.6c1.816,12.475,2.532,22.3,8.662,33.72a.754.754,0,0,1-1.33.711c-.045-.076-.081-.146-.125-.221-6.94-2.579-13.334-5.357-18.49-10.783a97.415,97.415,0,0,1-10.865-13.72c1.343,10.626.185,20.594-7.389,27.947-.545.526-1.177-.089-1.024-.681-.034.057-.062.117-.1.176-.174.288-.687.076-.551-.25,6.435-15.531,1.383-27.292-3.041-42.134-2.047-6.868-3.109-13.659-1.832-20.348-3.3,14.134-3.005,28.183-14.344,38.893-8.823,8.335-20.144,12.8-32.121,9.553a.618.618,0,0,1-.329-.9.312.312,0,0,1,.259-.388c8.863-.935,17.623-2.954,24.172-9.627,6-6.119,7.012-13.073,9.468-20.569a90.94,90.94,0,0,1,5.6-14.206c-18.634,16.872-49.973,15.911-64.6-7.277a.532.532,0,0,1,.3-.759c-.185-.144-.369-.265-.556-.416-.314-.257.119-.789.45-.554,17.811,12.607,33.292.35,49.784-4.263-21.714-6.473-40.28-21.381-48.548-42.8-.375-.971,1-1.748,1.451-.831a.513.513,0,0,1,.764-.108c11.907,10.134,34.541,7.705,48.853,14.619A46.3,46.3,0,0,1-128.745,398.6a33.74,33.74,0,0,1-.539-4.269c-.168-2.736-.95-6.791.621-9.194a.454.454,0,0,1,.834.254,49.285,49.285,0,0,0,1.268,17.256c.225.477.477.935.685,1.427a15.421,15.421,0,0,1,6.062,4.066c.034-.042.047-.093.108-.123,16.643-7.96,22.925-19.858,27.173-36.9A46.222,46.222,0,0,1-80.248,348.8a15.579,15.579,0,0,0-5.069,1.709.535.535,0,0,1-.742-.182c-7.256,18.5-21.481,33-43.426,34.327-23.811,1.436-41.4-23.152-40.97-45.8a141.7,141.7,0,0,1-30.537-22.844c-13.281,11.247-29.375,17.169-37.759,34.83-7.833,16.5-9.746,35.364-19.58,50.993-8.511,13.529-20.518,18.323-35.451,22.151-25.4,6.511-48.066,17.714-69.311,32.891-.11.38-.2.757-.318,1.139a.675.675,0,0,1-1.313-.178c-.706.1-1.381-.694-.7-1.243.405-.327.823-.63,1.23-.952,7.648-28.41-12.045-50.244-20.726-75.772-4.435-13.037-3.584-23.591,8.817-30.709,8.511-4.884,17.413-4,14.677-21.572-1.033-6.647-5.712-13.765-8.829-19.642-5.23-9.862-11.078-19.514-14.842-30.072-5.077-14.242-5.769-29.1,1.094-42.859,6.749-13.527,19.067-23.735,33.241-28.7,12.511-4.386,27.192-4.274,37.839-13.192,12.236-10.25,5.5-21.758,7.83-34.369,2.812-15.232,18.4-21.875,32.142-23.775,23.907-3.3,59.057,5.837,75.5-15.2,11.8-45.114,2.373-90.576-1.559-136.162a.3.3,0,0,1,.252-.312.459.459,0,0,1,.178-.753,11.668,11.668,0,0,1,8-.013.474.474,0,0,1,.3.541.33.33,0,0,1,.325.263c2.528,14.227,2.14,29.672,6.023,43.578,4.231,15.143,17.652,28.144,27.228,40.456,33.347,5.147,63.827-27.655,97.6-13.958,18.776,7.614,23.171,32.687,45.661,33.9,18.443,1,32.189-17.184,51.05-9.366,14.051,5.824,22.7,20.24,34.359,29.307,12.191,9.483,24.925,13.3,39.956,8.827,6.942-2.064,13.627-5.69,21.033-5.816,13.71-.231,21.873,10.04,30.494,19.088a26.937,26.937,0,0,1,2.467,1.813.444.444,0,0,1-.021.677c17.184,17.048,40,24.208,63.878,19.3A.957.957,0,0,1,230.323,152.975ZM139.915,529.368c-14.976-12.062-35.152-10.456-52.6-5.875-22.35,5.869-38.145,5.669-57.5-5.114q3.557,3.741,7.035,7.506c6.619,7.188,13.273,14.242,20.083,21.107,15.877,5.446,29.453-9.464,44.908-10.887.566-.053.793.757.2.891C90.063,539.729,77.3,549.281,64.61,549.354c27.792,4.271,62.618-25.207,85.751-4.755A29.885,29.885,0,0,0,139.915,529.368ZM56.831,549.757a.393.393,0,0,1,.335-.278q-.748-.751-1.491-1.506C56.059,548.567,56.47,549.161,56.831,549.757Zm81.994-3.595a70,70,0,0,0-32.032,4.653c-6.52,2.469-13.01,4.923-19.954,5.96A41.584,41.584,0,0,1,64.5,554.467c6.952,6.73,14.11,13.247,21.593,19.5,23.884,6.853,44.126-13.05,67.859-9.12-1.226-6.163-1.567-12-2.859-17.542-27.275-23.082-62.639,14.138-91.681,2.148q1.218,1.212,2.441,2.418c25.763,11.875,49.928-10.39,77.015-6.774C139.534,545.186,139.521,546.21,138.825,546.162ZM84.21,574.484l-.011-.036-.221-.185C84.055,574.338,84.133,574.41,84.21,574.484Zm-30.5-28.391a.283.283,0,0,1,0-.1l-.144-.144C53.62,545.933,53.662,546.015,53.711,546.094Zm126.58,37.966c-9.631-1.877-19.983-3.686-24.832-13.266a.759.759,0,0,1-.04-.142c-.013-.032-.036-.051-.045-.085-.454-1.478-.81-2.935-1.128-4.38-22.4-3.869-42.753,15.266-64.567,9.835,21.054,8.579,43.267-8.662,63.835.963.335.157.076.67-.261.575-21.054-6.045-43.75,8.768-63.719-.787,1.179.959,2.337,1.932,3.531,2.878,8.034,6.348,16.14,12.747,24.386,18.98.023,0,.038-.023.064-.019,9.932,1.194,18.155-.738,27.19-5.181,5.128-2.52,9.606-6,15.587-6.189,9.389-.291,18.123,13.637,27.114,9.145a.589.589,0,0,1,.551,1.039c-13.022,7.122-17.326-10.976-31.449-8.248-8.049,1.555-14.581,8.278-22.749,10.163a35.481,35.481,0,0,1-13.326.346c8.21,1.958,15.714-.2,24.17-3.086,5.23-1.688,10.9-2.974,16.333-1.4,6.471,1.875,9.035,8.545,14.98,11.122,7.084,1.941,13.262-5.133,20.611-4.187,5.951.763,11.277,4.859,14.823,9.5a.441.441,0,0,1,.074.242,24.232,24.232,0,0,0-2.9-12.978C202.291,587.971,191.267,586.2,180.291,584.06Zm31.129,28a.424.424,0,0,1-.721.2c-6.165-5.8-12.87-10.929-21.695-7.557-4.545,1.737-8.477,4.384-13.506,3-4.88-2.123-7.256-7.007-11.693-9.709-5.769-3.516-12.878-1.975-18.9-.064-8.3,2.78-16.191,5.3-24.221,3.141,9.067,6.768,18.323,13.292,27.869,19.266,5.309,1.968,10.827,3.631,16.448,3.533,7.972-.136,14.528-4.645,22.278-5.33,8.691-.768,16.4,3.858,22.726,9.368a33.929,33.929,0,0,1,.227-3.981C210.69,619.954,211.318,615.98,211.42,612.06Zm-42.946,33.048c12.2.554,21.705,10.382,33.37,13.054,13.094,3,26.4-.144,39.18-3.593-15.6-2.781-29.72-9.056-30.893-24.7-5.519-4.914-12.291-9.633-19.951-9.945-7.035-.286-13.374,3.661-20.164,4.8a34.417,34.417,0,0,1-15.451-1.27c8.963,3.724,16.8,5.453,27.086,4.643,6.121-.484,11.788.206,17.245,3.137a.444.444,0,0,1-.361.8c-4.677-1.726-9.372-2.978-14.405-2.8-4.354.151-8.456,1.128-12.834.719a41.437,41.437,0,0,1-11.669-3.065c15.831,8.916,32.518,16.117,50.535,20.248.467.108.24.785-.214.7-23.966-4.42-45.983-15.2-66.611-28.543-.146-.064-.293-.123-.439-.184a.459.459,0,0,1-.257-.276q-7.266-4.727-14.31-9.818c.172.214.331.443.5.66a42.147,42.147,0,0,1,9.775,10.3c4.274,6.2,10.011,11,14.651,16.883a.347.347,0,0,1-.5.477A96.967,96.967,0,0,1,140.161,624.3c-3.279-4.165-5.782-8.382-9.372-12.009,8.426,11.97,13.688,26.944,27.937,33.4a.559.559,0,0,1,.361.511A32.14,32.14,0,0,1,168.473,645.108Zm-78.775,3.3c19.249,33.587,43.489,5.451,67.725-1.748-17.5-8.327-21.625-29.071-34.719-41.744-10.068-7.485-19.816-15.3-29.324-22.969a72.909,72.909,0,0,1,13.5,22.829c3.23,8.806,6.2,16,11.994,23.561,3.883,5.071,6.872,9.466,9.164,15.568.3.806-.891,1.453-1.2.638-3.858-10.295-12.609-16.359-17.086-25.964-3.432-7.364-4.462-15.625-8.361-22.944a85.442,85.442,0,0,0-13.657-18.244l-.085-.07c9.724,13.353,11.1,27.958,17.8,43.277,6.647,15.192,20.787,21.754,21.536,39.332.053,1.268-1.892,1.173-1.964-.076-.946-16.533-15.718-24.136-21.618-38.456-4.291-10.416-6.378-20.518-10.17-30.278,3.748,14.25,2.507,31.008,11.451,43.4.276.382-.216.9-.551.522-16.081-17.943-4.218-46-23.122-62.476-.24-.208.013-.571.278-.541-7.468-6.38-14.619-13.075-21.574-19.977-.833-.5-1.663-1.022-2.475-1.6,5.616,9.584,7.907,19.391,9.285,30.933,1.843,15.423,7.57,27.3,14.011,41.037C84.755,630.351,85.436,640.975,89.7,648.411ZM42.476,591.269c4.121,12.94,11.065,17.718,23.58,20.925,3.234.829,6.577,1.639,9.268,3.758-3.972-7.555-7.533-15.324-9.065-23.756-2.9-15.994-3.143-29.587-11.341-43.9,7.769,15.324,3.695,34.3,12.015,50.563.246.477-.458,1.046-.8.577-4.583-6.289-5.841-12.725-6.515-20.486-1.423-16.422-2.136-28.225-13.82-40.938a.354.354,0,0,1-.091-.333q-6-6.328-11.924-12.751c-1.175-1.268-2.375-2.53-3.565-3.8C41.673,542.352,35.219,568.493,42.476,591.269ZM-128.331,418.228c-.138.509-.267,1.018-.395,1.527C-128.6,419.246-128.482,418.737-128.331,418.228Zm-19.22,37.788c-5.739,7.985-14.6,11.5-23.9,12.554,13.237.554,26.73-5.871,33.714-17.682,5.563-9.413,5.08-25.02,9.368-35.364C-140.543,426.424-138.615,443.588-147.551,456.017ZM161.761,203.73c8.2-6.887,15.332-14.2,22.5-21.169-18.108-7.226-33.587,12.017-52.444,9.02a35.356,35.356,0,0,1-13.915-5.33c-9.415-6.178-15.368-11.436-25.992-13.251a524.566,524.566,0,0,1-59.453-1.958c.5.216,1.014.422,1.508.66a.382.382,0,0,1,.182-.074c8.295-.034,17,.708,24.6,4.363,9.707,4.67,15.71,13.455,25.43,18.282,10.081,5.007,13.4,2.227,23.294.284,3.1-.609,4.923-1.152,8.121-.713,10.607,1.455,16.291,11.635,27.695,12.238a.665.665,0,0,1-.051,1.328c-7.525-.233-11.332-4.106-17.707-7.538-14.588-7.852-22.4,1.417-35.822-.683-6.5-1.016-11.332-5.084-16.038-9.41-12.316-11.328-21.877-15.506-37.924-17.167,18.342,10.04,29.122,34.348,51.137,35.252,9.754.4,18.089-5.12,28.011-3.76,10.524,1.442,20.28,12.475,31.19,10.009a.547.547,0,0,1,.583.216A111.4,111.4,0,0,0,161.761,203.73Zm-61.436-30.938a.394.394,0,0,1-.015-.053l-.176.006ZM144.176,215.8c-6.588.942-10.793-2.522-16.995-5.746-8.395-4.363-16.588-5.595-25.85-3.48-4.931,1.128-9.353,3.005-14.511,2.778-25.26-1.113-35.932-31.423-58.807-38.745q-16.432-1.651-32.647-4.426A28.7,28.7,0,0,1,1.3,171.452c6.613,7.5,11.992,14.221,20.969,18.7a41.8,41.8,0,0,1,9.258,2.942c16.125,7.364,27.724,28.48,26.8,46.923C87.4,235.376,118.229,230.322,144.176,215.8Zm-246.586-93.814a28.249,28.249,0,0,1,3.922,6.808c3.943,9.64,4.581,19.472,11.864,27.625.5.566-.278,1.247-.833.791-4.98-4.1-7.139-9.36-8.855-15.451-2.768-9.843-4.717-17.915-12.5-24.492A26.405,26.405,0,0,1-106,127.825c1.058,12.613,1.669,22.615,9.894,33.008.042.055.021.112.047.168a47.649,47.649,0,0,1,13.888,3.548c18.331,7.828,32.569,25.7,35.6,45.165A156.812,156.812,0,0,1-25.505,198.36c-17.854-10.812-19.307-35.368-33.288-48.378a34.61,34.61,0,0,1,5.779,11.992c1.536,5.307,2.356,10.759,4.426,15.907,2.961,7.357,7.958,12.535,13.094,18.38.312.354-.176.785-.524.494-6.127-5.128-11.275-10.861-14.219-18.367-4.458-11.368-3.824-22.927-13.16-31.809A254.783,254.783,0,0,1-102.409,121.984ZM-57.5,149.445c14.11,12.893,15.438,37.767,33.943,48.079,13.688-5.807,28.891-9.618,42.611-7.849a43.424,43.424,0,0,1-11.118-8.312c-5.321-5.58-9.118-12.639-16.087-15.809-.424-.078-.842-.185-1.266-.265a38.3,38.3,0,0,1,6.341,8.255c3.262,5.474,7.287,9.292,11.843,13.627.293.278-.117.789-.45.554-8.747-6.21-12.863-15.358-20.07-22.923A202.767,202.767,0,0,1-57.5,149.445Zm115.74,92.5a34.689,34.689,0,0,1-1.7,7.911c-.176.509-.418.98-.611,1.478,15.309-1.434,28.6-7.088,40.592-16.263-12.566,2.834-25.334,4.893-37.862,6.891A1.046,1.046,0,0,1,58.237,241.949Zm67.494-15.457a210.448,210.448,0,0,1-26.5,7.966c-12.17,10.957-27.37,17.056-43.672,18.454-.115.011-.165-.059-.252-.089a45.644,45.644,0,0,1-5.016,8.8q5.707,3.223,11.394,6.6a.581.581,0,0,1,.532-.1c17.7,5.063,36.019,5.826,53.784.46,14.019-4.233,25.218-10.509,39.661-12.047-22.876-3.506-44.134,14.132-66.773,5.981a.575.575,0,0,1,.335-1.1,37.453,37.453,0,0,0,7.835,1.222C112.273,258.812,125.056,241.987,125.731,226.492Zm-9.147,61.373c14.978,6.753,24.757-4.407,38.346-7.8,5.57-1.391,10.687-1.1,15.377,1.705-14.115-8.036-25.054-1.822-39.593,3.162-6.967,2.388-13.813,2.99-20.157-.986-1.811.157-3.627.261-5.436.339a38.232,38.232,0,0,1,11.427,3.582C116.56,287.867,116.57,287.858,116.583,287.864Zm7.457,13.12c7.584,9.646,14.842,14.732,24.851,15.674a25.388,25.388,0,0,1-11.7-5.958c-4.7-4.225-7.309-10.142-11.629-14.694-6.142-6.473-14.1-9.839-22.7-10.963q.9.783,1.871,1.646C113.09,288.829,118.814,294.342,124.04,300.984ZM47.7,268.066a.847.847,0,0,1,1.135-.411c14.706,7.135,29.809,16.73,38.989,30.331a.411.411,0,0,1,.454.087c5.179,4.982,10.023,10.305,14.961,15.525,3.457,3.654,15.137,19.2,21.389,16.094,7.943-16-13.739-35.966-24.176-44.9l0-.006c-.178-.015-.352-.045-.53-.057a.454.454,0,0,1-.388-.636.349.349,0,0,1,.293-.439c15.086-1.5,28.183-2.7,40.456-12.74,6.52-5.332,11.553-10.543,19.175-13.576l-.182-.045c-.028.008-.036.036-.068.04-19.211,2.136-35.175,12.083-54.024,15.262a91.611,91.611,0,0,1-40.047-2.31c23.33,14.238,45.169,31.218,57.381,56.353a.457.457,0,0,1-.806.428c-15.979-30.1-43.839-47.313-71.956-64.679a52.419,52.419,0,0,1-4.282,5.01A10.124,10.124,0,0,0,47.7,268.066ZM-46.47,287.131c12.643,7.8,27.129,6.3,41.012,3.336,22.6-4.825,50.56-16.335,59.755-39.307,9.616-24.03-9.215-57.672-35.591-59.795-13.7-1.1-27.913,2.072-41.124,7.4a.9.9,0,0,1-1.279.621c-.038-.021-.072-.045-.11-.064a145.134,145.134,0,0,0-22.567,11.926,46.641,46.641,0,0,1-2.914,23.457c-.008.019-.03.019-.038.038-.011.045.015.083-.006.127a61.412,61.412,0,0,1-14.944,20.185c10.539,7.065,21.6,17.444,34.223,20.159,12.524,2.694,24.443-1.975,36.149-5.9.5-.168.817.677.324.874-11.413,4.571-24.2,8.948-36.63,6.354-12.723-2.653-24.766-13.162-34.564-21.061a53.467,53.467,0,0,1-6.352,4.683C-65.312,270.308-56.54,280.921-46.47,287.131Zm-4.017-52.97.015-.013c10.138-25.871-3.894-54.408-28.1-66.8-26.488-13.555-58.482-.013-70.508,26.579-8.535,18.878-1.192,40.079,12.766,54.2a47.621,47.621,0,0,0,20.4,9.7c-23.631-7.347-38.461-32.053-33.434-56.864.127-.634,1.2-.458,1.122.191-3.241,27.3,11.5,51.651,39.214,57.373a.373.373,0,0,1,.257.191c10.56.507,21.489-2.373,31.966-8.123.611-.335,1.06.566.5.94-14.812,9.858-34.115,11.992-49.776,4.893a52,52,0,0,0,10.214,5.094C-88.49,271.383-63.289,260.114-50.487,234.161ZM-154.128,215.1a41.974,41.974,0,0,1,3.523-22.189c.042-.091.1-.172.14-.263-6.295-1.014-10.583-7.393-14.832-11.6C-164.128,193.514-160.115,204.29-154.128,215.1ZM-60.2,329.424c-.1,6.019,2.2,9.943,5.924,14.946,2.045,2.747,3.427,5.258,3.652,8.685.025.363-.556.405-.628.057-2.013-9.661-12.539-14.384-9.917-25.4.017-.068.072-.1.108-.144q-5.488-11.9-11.116-23.739a38.865,38.865,0,0,1,.187,10.781c-.032.248-.1.486-.144.732l0,0c2.518,4.532,4.965,9.131,7.353,13.758-.481-6.053-1.5-11.531-6.252-15.75-.437-.388.155-1.065.632-.778,5.794,3.48,6.108,10.848,6.244,16.865a.25.25,0,0,1-.316.261,270.545,270.545,0,0,1,11.427,24.9c1.294-.568,2.592-1.069,3.9-1.512C-52.9,345.233-56.553,337.33-60.2,329.424ZM42,376.8c-7.96,1.794-15.716,6.117-23.126,9.5a88.152,88.152,0,0,1,9.368,18.823c6.323-4.5,9.546-12.422,16.121-17,2.946-2.051,6.984-4.942,10.734-3.862a.34.34,0,0,1-.112.662c-13.591.571-16.721,15.175-26.433,21.1.238.723.45,1.446.658,2.174,3.811-2.365,7.519-4.643,10.742-7.839,2.2-2.178,3.813-4.6,6.952-5.283.511-.11.829.655.329.889-3.782,1.756-6.14,5.336-9.309,7.941a32.1,32.1,0,0,1-8.458,5.175,40.765,40.765,0,0,1,1.429,15.584,30.833,30.833,0,0,1-1.194,5.275c17.981-6.291,27.58-29.6,47.08-31.143-3.321-1.6-6.24-4.507-9.022-7.919C60.472,381.933,54.691,373.939,42,376.8Zm-11.89,56.635a.561.561,0,0,1,.034-.308c-.28-.072-.554-.159-.829-.235C29.575,433.07,29.863,433.238,30.109,433.431Zm85.734-46.075c-11.593-3.171-18.87,5.824-27.476,11.491-.049.032-.089,0-.138.023a15.25,15.25,0,0,1-5.36,1.188.616.616,0,0,1-.67.354C58.4,397.662,50.311,425.7,29.443,430.72c-.117.348-.221.694-.348,1.041,6.314-1.843,12.927-3.251,18.738-6.428,6.456-3.531,9.693-8.414,15-13.037A25.879,25.879,0,0,1,78.5,405.463c.619-.057.719,1.005.1,1.092-12.632,1.79-17.044,11.249-26.67,17.731-6.339,4.267-13.966,6.405-21.413,7.86,9.55,1.926,19.951,1.684,30.217.891a10.19,10.19,0,0,1,2.77-.42c1.065-.3,2.117-.624,3.162-.959a.31.31,0,0,1,.132-.373c10.255-6.443,15.417-11.826,20.636-22.916,2.356-5.007,4.418-8.344,9.381-11.527,6.81-4.367,13.406-4.467,19.228,1.326.522.52-.295,1.273-.825.78-17.529-16.267-25.167,11.381-32.178,20.59-3.72,4.882-8.674,8.412-14,11.3,8.1-2.889,15.379-7.094,20.306-14.708,3.33-5.15,4.91-9.92,10.214-13.311.049-.032.087,0,.134-.021.019-.008.021-.03.04-.036,5.33-1.943,7.741.52,12.1,3.313a19.241,19.241,0,0,0,22.586-1.247.662.662,0,0,1,.8-.008C130.138,397.948,124.658,389.766,115.843,387.356Zm39.023,35.023c-8.59-2.929-13.913-9.816-19.3-17.1a.528.528,0,0,1-.206.541,20.858,20.858,0,0,1-14.5,4.721c-6.935-.441-14.3-8.651-20.672-6.5-7.892,5.05-10.072,15.565-17.665,21.36a42.671,42.671,0,0,1-14.477,7.012c4.518-.409,8.95-.831,13.209-1.107,18.827-1.22,37.364-3.586,56.026-6.225.634-.089.867.853.221.986-18.482,3.835-37.485,5.368-56.3,6.585-4.221.271-8.655.719-13.186,1.156,2.42,1.167,4.284,3.19,6.649,4.407,7.792,4.017,13.071,2.31,20.579-.581,2.995-1.152,5.782-2.524,9.092-2.049,6.721.965,9.654,9.33,17.82,6.918.013,0,.021.006.032,0C131.444,433.041,141.1,426.012,154.866,422.379ZM63.985,457.508a.6.6,0,0,1,.235-.1l.017-.009c.011,0,.015.006.025,0a.822.822,0,0,1,.165-.019c5.071.433,7.345,2.766,11.737,5.08,15.542,8.185,28.726-.592,38.98-12.308,1.82-2.076,3.616-4.059,5.419-5.962a9.286,9.286,0,0,1-5.828-.95c-2.378-1.063-4.023-3.319-6.327-4.414-7.695-3.663-10.742-.3-16.622,1.618-3.8,1.243-7.962,2.2-11.964,1.266-5.455-1.264-9.169-6.221-14.339-7.667-.785.074-1.57.142-2.356.212,3.61,2.694,7.116,5.737,10.933,8.1,6.422,3.985,11.16,2.07,17.973,1.27a21.617,21.617,0,0,1,16.539,5.1c.658.537-.312,1.461-.965.914a20.293,20.293,0,0,0-17.534-4.49c-2.916.528-5.743,1.565-8.753,1.283-7.347-.687-13.667-7.444-19.09-11.79a.446.446,0,0,1-.168-.3c-9.856.842-19.928,1.247-29.09-.59a17.243,17.243,0,0,1,8.25,7.616c2.091,3.807,3.061,8.252,5.951,11.62,3.531,4.115,8.208,5.243,13.2,6.229.021,0,.028.025.047.034A18.262,18.262,0,0,1,63.985,457.508ZM39.59,473.964c9.077-1.533,13.058-8.946,19.279-13.627-16.047.617-15.833-20.427-27.932-26.157,8.229,7.491,6.781,21.593,15.417,29.336.428.384-.148,1.022-.615.757-11.247-6.424-7.531-22.832-17.364-30.7a64.58,64.58,0,0,1-19.322,24.9c-.683.507-1.379.982-2.083,1.436C16.315,465.442,28.423,475.847,39.59,473.964Zm-72.319-12.537c11.234,2.957,26.41,4.1,36.87-1.54,14.543-7.837,26.026-27.988,24.73-44.047-.836-10.32-6.07-20.575-11.682-29.627l-.006-.013c-1.381-2.225-2.776-4.4-4.144-6.46-.03-.045-.008-.089-.021-.134-15.822-23.638-44.792-36.955-71.034-20.586-.034.021-.064.042-.1.064a37.074,37.074,0,0,0-7.419,10.193c-2.906,19.941,3.714,43.805,13.841,60.643.208.348-.348.764-.59.426-10.747-14.931-17.109-38.465-14.67-57.67-6.615,18.422,3.15,40.176,10.706,58.486a.271.271,0,0,1-.477.255c-10.1-18.3-19.385-44.117-9.449-63.3.178-.846.346-1.7.564-2.52.117-.445.766-.231.674.206-.013.055-.017.115-.03.17a34.768,34.768,0,0,1,2.974-4.142c-23.72,18.607-12.825,51.008-.371,74.327C-55.408,449.17-47.27,457.6-32.729,461.427Zm-46.677-113.42a.38.38,0,0,1,.431.074.291.291,0,0,1,.006.488c-12.736,16.575-13.2,37.733-26.647,51.262a21.334,21.334,0,0,1,9.845-2.04c5.875.083,12.774,2.711,18.395,1.058-2.019-16.013,2.034-31.315,18.586-41.279a51.082,51.082,0,0,1,4.9-2.59c-6.045-12.664-11.947-25.307-18.636-37.646A30.857,30.857,0,0,1-81.215,331.3a.773.773,0,0,1,.019.318,84.145,84.145,0,0,1-4.49,17.691A9.424,9.424,0,0,1-79.406,348.007Zm-46.306,34.573c25.873-3.888,38.439-26.017,42.734-49.667a64.288,64.288,0,0,1-19.729,11.527c-24.346,8.954-46.62,5.521-66.681-4.99C-167.407,362.484-150.821,386.353-125.712,382.58Zm8.274-36.251c15.652-2.672,37.4-11.232,42.906-28.174,2.1-6.473,1.508-13.43-.5-20.312-.053-.108-.1-.218-.155-.324-.034-.07,0-.125-.011-.193-3.315-10.995-10.151-21.771-15.362-30.064-10.121,1.171-19.684-1.584-29.752-5.633-9.671-3.89-18.253-11.5-24.407-20.81-12.166,4.282-23.867,8.887-35.64,14.127-5.671,3.459-11.572,6.431-17.086,10.208,2.634,4.2,5.637,8.322,7.909,12.988,5.512,11.324,3.65,21.7-4.628,31.222a61.187,61.187,0,0,1-5.722,5.72C-175.53,336.667-151.294,352.109-117.438,346.329Zm-59.5-176.375c.038.18.072.358.108.537,1.8,6.774,3.809,13.527,6.053,20.214C-171.159,182.9-172.505,176.464-176.942,169.955Zm9.353,34.707c-.013-.017-.034-.015-.047-.034a20.2,20.2,0,0,1-2.325-5.9c-2.178-5.76-4.081-11.6-5.737-17.466-.011-.03-.04-.034-.049-.066-.062-.235-.117-.475-.178-.711-1.016-3.652-1.962-7.311-2.77-10.965-.015-.068.032-.106.032-.168a357.255,357.255,0,0,1-8.861-57.335,9.953,9.953,0,0,1-.509,1.555.5.5,0,0,1-.03.577c-1.207,1.716-2.39,3.438-3.586,5.156-9.4,20.4-1.907,37.2,6.038,58.416,4.861,12.984,6.329,25.383-1.483,37.392-6.386,9.816-13.983,16.28-15.968,28.7-1.321,8.263,1.419,14.486,5.06,20.45,5.627-4.2,11.866-8.543,18.516-10.844a135.621,135.621,0,0,1,31.476-12.832A184.442,184.442,0,0,1-167.589,204.661Zm-65.159-20.734c1.232,12.407,3.141,24.316,11.8,34.079,4.454,5.02,8.844,7.994,11.073,14.516,5.712,16.7-14.543,32.488-5.128,47.08.378.585-.532,1.226-.99.713-13.027-14.6,7.175-26.123,5.6-41.714-1.315-12.995-13.124-18.335-18.363-29.218-3.546-7.362-4.751-15.428-5.12-23.506-.233.411-.46.827-.694,1.239-3.8,10.785-5.659,20.908,1.667,31.716,3.47,5.118,9.956,7.648,13.109,13.3a24.824,24.824,0,0,1-.04,23.542c-1.171,2.238-3.3,4-4.414,6.227-4.524,9.065-3.133,15.877,2.445,24.094,2.543,3.746,5.039,7.114,6.426,11.548,3.094,9.883,1.2,19.642-3.809,28.4,6.976-4.67,14.34-8.914,20.641-15.054,12.931-12.592,10.609-25.841,1.6-40.5-4.395-7.15-8.011-13.44-8.295-21.992-.5-14.933,9.09-22.656,16.429-34.342,14.25-22.689-5.3-42.066-9.366-64.162a46.831,46.831,0,0,1,1.7-23.589C-209.371,145.161-221.526,164.3-232.748,183.927Zm-24.125,210.5c8.1-16.306,9.837-35.165,19.341-50.853,4.411-7.281,10.407-12.191,16.821-16.594a.8.8,0,0,1-.322-1.143c6.967-11.521,6.838-23.678.21-35.059-2.81-4.829-7.813-9.245-9.258-14.849-2.185-8.469,4.066-12.74,7.659-19.627,7.158-13.722,1.644-23.241-8.182-32.989-3.531-3.5-6.772-6.208-8.56-10.963-2.129-5.654-1.432-11.684.265-17.451-.161.295-.329.585-.49.88a32.586,32.586,0,0,0,.293,22.732c2.437,6.649,7.4,11.574,10.079,17.9,2.77,6.545-.689,13.676-2.957,19.949a.713.713,0,0,1-1.364-.416c1.926-9.092,3.979-14.509-.456-23.578-2.571-5.258-5.985-9.635-7.682-15.343a31.5,31.5,0,0,1-.8-15.86q-6.932,12.951-13.3,26.217a54.878,54.878,0,0,1-8.182,17.9q-5.6,12.77-10.613,25.892a.483.483,0,0,1,.191.231c5.485,17.12,25.9,25.044,29.958,41.939,3.164,13.2-7.3,24.34-9.919,36.6a.534.534,0,0,1-1.041-.176c1.979-18.446,17.811-29.3,2.034-47.914-8-9.44-18.439-17.018-21.756-29.3-.308.814-.621,1.627-.925,2.445,4.935,22,33.952,31.754,20.371,56.925-5.217,9.676-7.922,15.852-4.814,27.156,1.5,5.447,4.015,10.25,4.492,16.021.744,9-1.832,17.228-6.49,24.808a.824.824,0,0,1-1.4-.863c7.922-13.661,6.445-25.169,1.6-39.453-2.511-7.413-3.279-12.339-.049-19.7,1.65-3.763,4.611-6.872,6.221-10.639,6.036-14.132.965-22.183-8.571-31.237-6.615-6.28-10.318-12.569-12.038-21.152-1.086,2.948-2.17,5.9-3.209,8.876-3.33,9.538-6.405,19.3-9.457,29.135.609,12.352,15.983,22.1,15.582,35.186a19.36,19.36,0,0,1-2.233,8.066c-1.024,2.208-3.046,3.985-4,6.193-5.873,13.519-.929,19.2,5.936,27.985.464.594-.344,1.4-.863.819-10.4-11.553-10.853-17.913-5.307-31.118,8.375-19.947-.367-23.582-8.066-38.774a28.24,28.24,0,0,1-1.928-4.588c-.395,11.139,8.543,18.163,9.385,29.05.619,7.987-4.781,15.241-5.472,23.116a.671.671,0,0,1-1.34-.053,31.881,31.881,0,0,1,2.248-10.462c3.046-8.638,3.43-14.454-.893-23.165-2.562-5.167-4.834-10.028-5.188-15.343-5.436,17.553-10.961,35.224-17.85,52.17,2.651,9.046,9.9,15,13.016,23.856,2.783,7.9,1.538,16.571-.467,24.52C-280.462,417.59-265.719,412.226-256.873,394.43Zm-60.679,34.511c6.462-2.479,12.993-4.291,19.334-6.136,1.014-5.071,2.193-10.214,2.074-15.417-.2-8.7-4.259-13.765-9.037-20.471a33.178,33.178,0,0,1-4.946-10.7c-.187.456-.386.9-.577,1.357,1.89,6.471,5.082,13.8,5.08,20.611,0,5.919-2.687,11.913-5.324,17.1-.409.8-1.546.064-1.179-.727,2.884-6.187,6.062-12.965,4.783-19.951-.963-5.243-2.621-10.441-3.962-15.623-8.736,20.45-19.644,39.718-35.11,56.234-.776.829-1.919-.433-1.2-1.266,16.265-18.785,27.559-39.977,36.688-62.232-.047-.49-.163-.984-.18-1.472s.624-.664.948-.405c4.944-12.244,9.273-24.791,13.383-37.451-.1.132-.187.269-.284.4-12.893,35.118-64.124,28.944-78.768,63.407-.015.034-.04.053-.057.085,1.955,3.718,3.9,7.364,5.523,10.918,6.94,15.245,11.8,30.685,7.975,47.052A176.588,176.588,0,0,1-317.552,428.941ZM-361.141,341.9c-7.1,10.664-24.7,8.388-24.569,25.472.072,9.285,4.3,18.291,8.776,26.9,14.955-31.988,61.093-28.236,76.919-58.1-16.308,16.4-45.886,12.057-63.778,27.525-.651.562-1.557-.382-.923-.976,18.206-17.039,47.88-11.279,64.834-28.706-10.153,6.993-25,5.616-36.671,8.348a.361.361,0,0,1-.248-.668c12.855-6.1,28.361-1.139,39.326-11.43.1-.3.227-.579.327-.884a.534.534,0,0,1,.831-.274c.144-.155.295-.278.437-.437a.47.47,0,0,1,.348-.151q2.545-7.909,5.054-15.835a16.071,16.071,0,0,1,.619-2.571.526.526,0,0,1,.31-.337c4.163-13.08,8.407-26.132,13.228-38.912q3.862-10.241,8.076-20.429c-.346.344-.662.708-1.022,1.039a34.256,34.256,0,0,1-8.993,6.042c-3.434,1.557-7.237,1.654-10.708,2.889-9.913,3.516-16.482,10.84-18.31,20.751-5.377,29.116-26.912,36.48-51.362,48.887a.825.825,0,0,1-.119.034A16.7,16.7,0,0,1-361.141,341.9Zm2.093-13.62c14-7.027,33.727-13.661,42.8-26.87,7.105-10.335,4.45-22.726,10.019-33,4.284-7.9,11.33-7.958,19.16-10.076,9.389-2.543,16.2-7.251,21.237-13.6.382-.9.759-1.8,1.147-2.7-14.918,16.781-47.377-.564-57.052,23.822-3.054,7.7-2.53,15.983-6.884,23.411-4.433,7.561-10.774,11.864-19.054,14.043-1.029.269-1.374-1.317-.361-1.608,17.285-4.974,20.4-17.353,23.892-32.187,1.449-6.146,3.107-10.91,8.486-14.632,16.314-11.285,39.742,2.467,52.336-16.957a.593.593,0,0,1,.539-.28,608.742,608.742,0,0,1,36.164-70.17,37.066,37.066,0,0,1-10.971,7.449c-5.266,2.252-10.5,2.488-15.928,3.981-10.149,2.791-15.391,7.919-17.962,17.956-4.308,16.817-12.728,29.971-28.251,38.433a.741.741,0,0,1-.7-1.306c12.151-7.105,21.241-16.7,25.892-30.208,2.14-6.212,2.11-15.508,6.46-20.868,3.1-3.818,6.876-4.189,11.5-5.048,13.854-2.575,24.287-6.817,33.695-16.5.115-.185.225-.371.339-.554a43.058,43.058,0,0,1-15.9,9.468c-8.772,2.768-18.543,1.156-27.175,3.979-13.79,4.511-16.21,23.067-21.294,34.31-5.992,13.249-15.251,26.511-29.769,31.139-7.7,2.454-15.58,1.145-23.457.547-12.694-.965-41.973-2.933-45.614,13.811a.792.792,0,0,1-.965.645c-.45,18.083,9.519,35.767,18.242,52.3C-365.368,312.883-360.59,320.654-359.048,328.283Zm56.56-156.489c.554,14.477-6.488,23.733-19.951,29.156-10.11,4.07-21.266,4.524-31.347,8.768a56.746,56.746,0,0,0-26.526,22.912,44.926,44.926,0,0,0-6.053,17.493c4.443-8.7,17.623-11.071,26.435-12.036,10.662-1.166,20.885,1.2,31.483,1.073,18.089-.206,30.06-12.157,37.72-27.175,7.262-14.24,7.128-35.428,24.673-39.7,8.91-2.17,18.367-1.13,27.207-3.839,8.083-2.477,14.537-7.57,20.017-13.7-6.853,4.074-13.818,4.768-22.505,4.146-20.416-1.459-36.584,6.613-46.007,24.959-10.636,20.706-19.281,39.133-45.525,39.852-1.029.03-.954-1.546.062-1.589,18.919-.808,30.628-11.4,38.715-27.667,4.284-8.624,7.652-18.2,14.677-25.095,5.992-5.886,14.6-9.839,22.791-11.5,14.518-2.94,26.157,3.1,39.6-5.676q11.367-17.475,24.083-33.852a52.14,52.14,0,0,1,3.724-5.913.541.541,0,0,1,.38-.225,37.155,37.155,0,0,0,.732-6.112c-.475-4.108-2.117-8.2-2.812-12.274a170.39,170.39,0,0,1-4.846,26.427.287.287,0,0,1-.015.057c-.008.036-.015.074-.025.11a.8.8,0,0,1-.25.4C-220.915,157.023-304.88,109.3-302.487,171.793ZM-189.9,61.046c.28,8.166.216,16.316-.31,24.439.653-1.372,1.531-2.575,2.325-3.983C-183.723,74.134-184.652,67.326-189.9,61.046Zm-4.384-78.1c3.181,4.933,2.607,9.44,2.059,15.133C-193,6.2-190.83,12.615-187.674,19.425c-2.248-11.782-2.346-24.9-3.016-35.977-.059,0-.1.038-.17.021A18.474,18.474,0,0,0-194.281-17.057ZM-184.1,31.928a59.011,59.011,0,0,1-2.774-8.755c-3.152-5.184-6.072-10.9-6.768-16.969-.916-7.994,3.173-15.591-1.553-23.048a.362.362,0,0,1-.034-.216,11.616,11.616,0,0,0-3.135.462.267.267,0,0,1,.1.153c3.177,25.135,7.321,50.664,8.314,76.088.047.013.091,0,.138.036a16.457,16.457,0,0,1,5.347,18.1c-2.286,6.884-6.3,10.129-4.67,18.062.471,2.286,1.048,4.395,1.455,6.522.5-3.777,1.007-7.561,1.533-11.326a.533.533,0,0,1,1.065.042c.477,5.3-1.224,10.844-1.815,16.168,2.157,17.438,4.594,34.6,7.8,51.733a.483.483,0,0,1,.8.136c4.286,8.488,9.741,14.265,17.4,19.856,4.507,3.294,8.666,6.4,11.411,11.37.168.3-.3.664-.511.367-8.537-11.71-22.643-16.153-28.757-29.894.46,2.416.946,4.829,1.438,7.245a30.09,30.09,0,0,1,7.09,13.8c.978,4.66.658,9.307,1.169,13.85a205.162,205.162,0,0,0,21.816,44.685q.977-.251,1.953-.484a57.966,57.966,0,0,1-8.581-22.49c-8.166-10.751-12.278-24.386-12.971-37.752-.049-.914,1.34-.836,1.408.055.021.269.064.524.087.791a.222.222,0,0,1,.218.042c4.445,3.975,9.048,10.017,15.186,11.128.579-1.156,1.16-2.312,1.815-3.415a.492.492,0,0,1-.458-.17A91.212,91.212,0,0,1-164.2,163.346a.592.592,0,0,1-.859.293c-4.781-2.768-8.545-5.847-9.676-11.489-.933-4.672-1.256-10.233,1.207-14.454a.363.363,0,0,1,.42-.176q-1.136-4.174-2.153-8.316c.011,3.51-1.169,6.7-2.305,10.212-2.859,8.829-.221,19.767,7.786,25.152a.491.491,0,0,1-.515.836c-5.762-2.85-8.836-9.928-9.858-16.053-1.33-7.962,4.884-14.762,3.368-22.673l-.015-.017c-2.757-7.648-7.336-12.935-7.724-21.307-.278-5.992.889-11.858,2.433-17.612-.619-7.881-.967-15.792-1.141-23.708a.359.359,0,0,1-.121-.252c-.255-4.276-2.806-7.9-3.264-12.134a42.259,42.259,0,0,1,.581-11.548c.053-.314.541-.318.513.021-.388,4.443-.893,9.415.263,13.771.545,2.055,1.372,3.909,1.953,5.843q-.127-7.731-.17-15.447c-.006-1.018,1.561-.952,1.576.062.738,47.371,3.2,104.188,34.142,142.96a.536.536,0,0,1,.081.265,57.227,57.227,0,0,1,23.856-21.5c-21.281-29.175-20.6-65.506-39.373-95.7-6.011-8.431-11.9-16.974-18.238-25.137-.579-.747.456-1.771,1.084-1.027,8.3,9.813,15.154,21.033,22.3,31.691.185.278-.045.568-.316.66,15.315,28.543,16.59,61.772,36.108,88.747a51.863,51.863,0,0,1,24.3-4.484,44.078,44.078,0,0,1-7.877-16.189c-2.441-10.284.558-20.955-6.117-30.214-.008-.013,0-.023-.008-.036q-1.078-.894-2.148-1.8c-.161-.059-.325-.11-.484-.172a.356.356,0,0,1-.229-.424c-7.55-6.424-14.776-13.211-21.659-20.282a49.531,49.531,0,0,1,5.752,13.777c3.5,13.926,1.864,27.016,10.335,39.5.221.329-.3.683-.558.4-5.739-6.2-7.574-13.3-8.694-21.561-2.008-14.81-3.968-26.77-12.617-38.162-1.139-1.23-2.233-2.488-3.351-3.733a.388.388,0,0,1-.134-.148c-3.771-4.2-7.463-8.454-10.991-12.789l0-.015c-.106-.121-.221-.246-.327-.365l-.011,0a.506.506,0,0,1-.392-.454C-166.891,57.523-178.643,45.152-184.1,31.928Zm11.226,106.465c-1.939,3.9-1.536,9.366-.621,13.478,1.2,5.391,4.568,7.928,8.91,10.594A181.486,181.486,0,0,1-172.877,138.393Zm-3.688-14.617c-.24-1.022-.481-2.047-.717-3.06a218.04,218.04,0,0,1-4.592-30.13,55.163,55.163,0,0,0-1.309,15.958C-182.563,113.1-179.1,118.073-176.565,123.776ZM51,89.748C37.3,77.052,25.475,75.9,8.5,83.239,1.895,86.092-4.124,89.1-11.513,89.163c-17.058.138-24.047-11.69-34.145-23.3-31.146-35.795-73.275,8.723-109.81,3,3.652,4.185,7.4,8.282,11.213,12.322,18.306.965,30.851-6.051,45.805-15.847,7.849-5.143,14.819-7.879,24.259-6.4.607.093.611,1.022-.038.98-17.315-1.084-26.889,11.457-41.523,17.824a56.567,56.567,0,0,1-27.529,4.475c.093.1.185.2.278.295,20.762,13.678,36.772-5.09,56.325-10.564,12.4-3.47,24.989-2.174,36.726,2.863.7.3.38,1.436-.35,1.152C-61.264,71.7-72.668,70.083-84.269,72.7c-10.458,2.365-18.825,9.027-28.511,13.154-9.911,4.225-18.906,4.335-27.682-.651a353.774,353.774,0,0,0,29.718,27.44c1.676.4,3.338.747,4.984,1.027C-94.38,113.307-85.7,109.742-76.984,101c4.462-4.475,9.111-8.518,15.188-10.683,16.927-6.026,31.587,12.335,47.095,5.239.8-.363,1.438.81.645,1.209-5.476,2.764-10.03,3-15.883,1.268a53.519,53.519,0,0,1-7.493-3.338c-11.309-5.3-21.084-5.4-31.472,1.7-7.046,4.814-11.41,12.405-19.351,15.981a30.911,30.911,0,0,1-6.933,2.138,39.522,39.522,0,0,0,24.149-8.6c4.4-3.4,7.788-7.519,13.3-9.107,13.131-3.786,24.393,10.013,37.334,10.564C3.269,104.633,23.891,75.8,48.756,88c.664.325.148,1.485-.537,1.188C23,78.285,3.8,106.228-20.254,108.862c-.011,0-.017,0-.025,0a.728.728,0,0,1-.17.025,35.485,35.485,0,0,1-15.177-4.146c-4.138-2.089-8.435-5.627-13.052-6.617-13.022-2.793-17.1,6.392-25.095,11.71-9.525,6.337-20.6,7.457-31.343,5.315-.931-.045-1.862-.115-2.791-.2a280.023,280.023,0,0,0,27.875,19.712c11.4,1.135,20.312-1.012,29.7-7.455,5.056-3.472,9.065-8.4,15.15-10.2,4.479-1.328,9.054-.074,13.58-.038a57.791,57.791,0,0,0,32.724-9.374c.766-.49,1.417.753.664,1.247-7.239,4.734-14.649,8.047-23.249,9.237-13.29,1.841-22.7-1.385-34.278,7.453-10.157,7.752-19.9,11.777-32.4,10.3a237.96,237.96,0,0,0,24.327,12.944c10.329.967,21.254-1.62,29.006-8.407,5.654-4.948,9.786-10.376,16.4-14.136.045-.025.081,0,.123-.013s.034-.047.068-.057c4.579-1.529,8.038-2.045,12.679-.518,12.721,4.187,20.395,12.259,35.046,8.454,17.345-4.5,28.015-16.026,45.553-16.73C71.175,111.842,61.836,99.795,51,89.748ZM147.2,116.393c-18.21-11.574-37.194,7.557-56.7,2.736-.35-.087-.681-.2-1.024-.295-21.277-1.126-34.077,14.789-53.848,17.58-14.861,2.1-29.782-13.243-43.4-8.821-9.667,5.531-15.436,16.535-26.1,20.325a44.654,44.654,0,0,1-16.762,2.214c1.239.543,2.479,1.08,3.729,1.6a33.461,33.461,0,0,0,20.955-2.766c4.9-2.327,8.305-6.814,12.969-9.285,5.712-3.024,8-3.179,14.223-.961,14.53,5.184,27.01,10.974,42.656,5.15,11-4.1,18.051-13.6,30.2-14.7.645-.059.9.906.227,1.012-14.872,2.339-23.826,15.678-39.078,17.466-12.291,1.44-20.984-3.4-32.276-6.683-13.966-4.066-21.811,7.786-34.369,11.228a33.672,33.672,0,0,1-11.777,1.116A205.97,205.97,0,0,0,2.54,165.6c10.288,1.519,20.617,2.683,30.969,3.576,13.438-3.623,20.662-10.957,31.807-19.65,5.856-4.566,10.339-6.242,17.722-5.48,12.055,1.243,20.836,6.946,33.415,1.936,11.275-4.488,14.993-16.554,25.939-20.658.028-.011.049.008.076,0s.042-.053.085-.062a27.154,27.154,0,0,1,17.924,2.418A75.294,75.294,0,0,0,147.2,116.393Zm16.276,14.395c-6.112-3.826-13.478-5.966-20.6-4.274-10.125,3.924-14.9,16.679-25.729,21.05a34.37,34.37,0,0,1-19.657,1.682c-5.425-1-10.787-3.8-16.337-4-12.622-.448-17.22,8.868-25.423,15.158a51.331,51.331,0,0,1-4.56,3.09,183.174,183.174,0,0,0,17.336-9.767c6.325-3.934,11.234-5.162,18.543-3.468.452.1.331.887-.138.812-12.1-1.934-19.243,5.546-29,10.855a85.067,85.067,0,0,1-19.752,7.661,557.555,557.555,0,0,0,80.565.274c8.759-4.594,9.23-12.721,13.956-20.407,3.075-5,7.345-8.749,13.245-9.659a.54.54,0,0,1,.235,1.054c-15.525,4.314-13.2,22.176-25.669,28.9.371-.025.744-.047,1.116-.072.025-.013.03-.04.059-.047,11.084-2.993,13.924-10.113,20.335-17.915a18.532,18.532,0,0,1,8.2-5.9c13.816-4.867,22.7,9.65,37.226,3.315-.957-.407-1.919-.772-2.865-1.226C175.88,143.729,169.689,137.259,163.481,130.788Zm25.561,19.033a.6.6,0,0,1-.259.31c-4.592,2.325-8.5,3.555-13.754,2.787-6.439-.942-11.673-6.378-18.234-6.6-11.05-.382-14.25,9.894-20.39,16.571a24.324,24.324,0,0,1-10.051,6.424,614.565,614.565,0,0,0,69.829-9.716.852.852,0,0,1,.373,1.661,609.14,609.14,0,0,1-93.182,11.366c5.368.755,10.178,2.6,15.364,4.6,12.386,4.791,21.7,2.373,33.455-3.321,8.142-3.943,16.39-6.954,24.921-2.634.473.24.112,1.05-.384.85-16.588-6.626-27.909,9.548-43.674,9.945-10.8.274-20.214-6.865-30.728-8.681a23.347,23.347,0,0,1,3.529,1.476c11.866,6.263,17.2,16.221,32.272,15.777,16.533-.486,29.894-17.1,46.567-8.865a.342.342,0,0,1,.168.208c12.558-12.161,25.334-23.145,44.128-28.745A71.375,71.375,0,0,1,189.042,149.821Z" transform="translate(389.029 18.16)" fill="#dfc5b0"></path></g></svg>